<svg width="596.182" height="596.182" viewBox="0 0 596.182 596.182" fill="none" xmlns="http://www.w3.org/2000/svg">
<g transform="translate(187.2007598876953 26.155202865600586)">
<path id="Vector" fill-rule="evenodd" clip-rule="evenodd" d="M123.269 305.936C123.281 305.243 123.13 304.74 122.317 304.775C121.551 304.811 120.854 304.857 120.898 305.932C120.93 306.733 121.192 307.156 122.062 307.078C122.814 307.011 123.322 306.752 123.269 305.936ZM102.802 313.525C103.509 313.267 104.708 313.639 104.867 312.293C104.99 311.248 104.289 311.137 103.501 311.222C102.717 311.305 101.663 310.993 101.689 312.377C101.703 313.06 101.727 313.714 102.802 313.525ZM113.466 310.578C113.019 310.687 111.999 310.375 112.015 311.606C112.03 312.961 113.154 312.567 113.911 312.703C114.817 312.866 115.198 312.488 115.177 311.54C115.151 310.449 114.475 310.486 113.466 310.578ZM116.806 306.311C116.667 307.295 117.311 307.39 118.155 307.351C119.014 307.313 119.481 307.054 119.471 306.073C119.463 305.03 118.889 304.916 118.07 304.924C117.178 304.932 116.691 305.266 116.806 306.311ZM108.508 310.932C107.848 311.196 106.669 310.517 106.542 311.912C106.451 312.905 107.168 312.957 107.83 312.774C108.63 312.554 109.934 313.196 110.097 311.796C110.233 310.631 109.215 310.988 108.508 310.932ZM133.109 61.1473C133.183 61.8654 132.915 62.755 134.076 62.741C135.359 62.7255 135.588 61.7877 135.634 60.8096C135.691 59.6157 134.618 59.6607 133.931 59.6072C132.685 59.5117 133.331 60.6186 133.109 61.1473ZM84.1077 20.7265C83.4021 20.8057 83.4222 21.436 83.4773 21.9887C83.5674 22.8248 83.062 24.0691 84.6006 24.0847C85.1766 24.0909 86.0492 24.2159 86.0135 23.2028C85.9739 22.0221 85.4685 21.1162 84.1077 20.7265ZM119.499 311.941C119.471 311.041 119.713 310.097 118.295 310.163C117.186 310.212 116.862 310.659 116.84 311.737C116.81 313.084 117.655 313.239 118.609 313.341C119.908 313.48 119.336 312.444 119.499 311.941ZM112.812 307.792C114.141 307.629 115.197 307.905 115.17 306.371C115.149 305.218 114.578 305.048 113.666 305.121C112.824 305.188 111.86 305.006 111.866 306.371C111.868 307.37 112.184 307.901 112.812 307.792ZM123.394 312.178C123.002 311.464 124.028 309.996 122.261 309.94C120.904 309.899 121.063 310.96 121.145 311.801C121.23 312.703 120.703 314.036 122.321 314.125C123.851 314.211 123.169 312.965 123.394 312.178ZM124.453 376.418H124.429C124.429 376.059 124.497 375.684 124.415 375.343C124.272 374.748 124.843 373.696 123.647 373.717C122.679 373.733 122.356 374.457 122.416 375.382C122.474 376.243 122.438 377.11 122.512 377.968C122.554 378.464 122.289 379.255 123.245 379.185C123.978 379.132 124.431 378.706 124.451 377.927C124.463 377.424 124.453 376.921 124.453 376.418ZM132.219 40.4222C132.446 41.0083 131.749 42.3101 133.317 42.3621C134.882 42.4157 135.278 41.1931 135.415 40.0644C135.616 38.4489 134.161 39.115 133.404 38.8984C132.207 38.5522 132.075 39.3176 132.219 40.4222ZM114.425 87.4414V101.03C114.636 101.024 114.851 101.018 115.061 101.015C115.224 96.4874 114.968 91.9702 114.425 87.4414ZM123.404 320.578C123.404 320.222 123.382 320.003 123.406 319.791C123.537 318.648 123.203 317.609 121.955 317.635C120.51 317.671 121.61 318.966 121.281 319.615C121.196 319.785 121.263 320.038 121.274 320.254C121.313 321.22 121.011 322.502 122.498 322.536C124.197 322.575 123.009 321.109 123.404 320.578ZM104.841 306.915C105.043 305.635 104.397 305.324 103.233 305.314C102.027 305.306 101.5 305.723 101.638 306.943C101.727 307.742 101.381 308.788 102.845 308.636C103.946 308.522 105.127 308.585 104.841 306.915ZM108.394 305.302C107.374 305.286 106.421 305.157 106.475 306.665C106.512 307.736 106.731 308.352 107.937 308.156C108.863 308.005 110.075 308.41 110.099 306.755C110.119 305.421 109.463 305.121 108.394 305.302ZM122.991 291.236C122.814 290.423 123.295 289.438 122.544 288.806C122.116 288.448 121.443 288.5 120.955 288.909C120.526 289.268 120.584 293.138 121.033 293.456C121.54 293.813 122.19 293.816 122.637 293.456C123.363 292.872 122.839 291.981 122.991 291.236ZM87.299 62.6401C87.4162 61.1574 86.598 60.6784 85.5764 60.704C84.2824 60.7359 84.7776 61.8607 84.8048 62.5128C84.8529 63.5879 84.4353 65.3702 85.866 65.3865C87.3207 65.4005 86.8914 63.4746 87.299 62.6401ZM122.901 283.615C122.647 282.838 123.428 281.385 121.55 281.405C119.924 281.425 120.453 282.651 120.486 283.432C120.526 284.34 119.844 285.801 121.725 285.775C123.251 285.755 122.782 284.576 122.901 283.615ZM132.768 20.8934C133.026 21.7558 132.69 23.1749 134.362 23.0639C135.568 22.9839 136.09 22.1393 136.1 21.0067C136.117 19.4053 134.793 19.5636 133.797 19.4029C132.661 19.2182 132.797 20.0985 132.768 20.8934ZM120.838 299.05H120.844C120.844 299.41 120.848 299.771 120.844 300.129C120.84 301.015 120.759 301.901 122.11 301.854C123.363 301.808 123.193 300.956 123.186 300.18C123.177 299.243 123.136 298.305 123.109 297.369C123.088 296.662 122.74 296.332 122.019 296.375C121.395 296.417 120.854 296.538 120.84 297.319C120.83 297.895 120.838 298.473 120.838 299.05ZM122.233 248.722H122.176C122.176 248.223 122.156 247.72 122.179 247.222C122.228 246.235 121.802 245.783 120.787 245.821C119.747 245.86 119.698 246.505 119.744 247.287C119.803 248.287 119.844 249.288 119.862 250.29C119.879 251.111 120.282 251.431 121.079 251.389C121.725 251.36 122.211 251.189 122.231 250.439C122.245 249.869 122.233 249.296 122.233 248.722ZM116.429 283.549C116.774 284.406 115.747 285.904 117.731 285.922C119.244 285.936 119.123 284.92 118.992 284.006C118.845 282.969 119.713 281.296 117.569 281.308C115.723 281.318 116.798 282.786 116.429 283.549ZM115.928 248.617C116.565 249.517 115.066 251.463 117.148 251.432C119.147 251.403 118.159 249.557 118.136 248.581C118.114 247.633 119.165 245.725 116.993 245.85C115.091 245.962 116.518 247.723 115.928 248.617ZM118.762 275.7H118.688C118.688 275.054 118.676 274.408 118.692 273.762C118.714 272.907 118.449 272.412 117.458 272.476C116.606 272.532 116.361 272.955 116.385 273.722C116.42 274.797 116.42 275.874 116.426 276.95C116.429 277.77 116.402 278.537 117.597 278.555C118.803 278.573 118.796 277.827 118.765 276.989C118.75 276.56 118.762 276.131 118.762 275.7ZM120.411 275.235C120.411 276.18 120.419 276.906 120.409 277.631C120.397 278.543 120.989 278.646 121.709 278.677C122.478 278.708 122.748 278.323 122.742 277.629C122.736 276.904 122.871 276.137 122.682 275.463C122.388 274.412 123.647 272.387 121.395 272.506C119.41 272.609 120.874 274.499 120.411 275.235ZM119.081 291.284H119.072C119.072 290.993 119.063 290.704 119.072 290.413C119.098 289.493 119.109 288.702 117.758 288.736C116.397 288.77 116.492 289.602 116.51 290.495C116.526 291.22 116.548 291.946 116.524 292.671C116.492 293.545 116.963 293.774 117.74 293.789C118.602 293.81 119.157 293.587 119.088 292.588C119.058 292.156 119.081 291.717 119.081 291.284ZM119.62 319.4C119.497 317.98 120.002 316.059 117.802 316.447C115.904 316.78 117.245 318.557 116.955 319.644C116.589 321.01 117.387 321.731 118.704 321.617C120.447 321.468 119.221 320.016 119.62 319.4ZM83.555 43.119C83.7064 44.4666 83.3819 46.4221 85.0835 46.2746C86.8146 46.124 86.23 43.9815 86.546 42.7037C86.9054 41.2629 85.6657 40.9291 84.6899 40.9392C83.0745 40.9547 83.9128 42.4273 83.555 43.119ZM119.187 299.559C119.187 299.056 119.183 298.553 119.187 298.053C119.191 297.194 119.109 296.49 117.919 296.574C116.937 296.645 116.476 296.985 116.564 298.018C116.642 298.945 116.615 299.882 116.638 300.815C116.649 301.343 116.739 301.854 117.388 301.928C117.955 301.993 118.611 302.114 119.018 301.638C119.528 301.037 119.193 300.26 119.187 299.559ZM122.544 267.077H122.494C122.494 266.351 122.474 265.626 122.498 264.902C122.533 263.931 122.016 263.66 121.138 263.688C120.27 263.716 120.024 264.174 120.067 264.951C120.145 266.254 120.196 267.556 120.256 268.859C120.29 269.612 120.729 269.835 121.415 269.802C122.066 269.771 122.554 269.593 122.545 268.816C122.54 268.235 122.544 267.657 122.544 267.077ZM114.843 283.622C114.777 282.398 115.222 280.962 113.04 281.013C110.729 281.069 111.746 282.681 111.693 283.654C111.638 284.625 111.047 286.045 113.12 286.057C115.117 286.067 114.907 284.877 114.843 283.622ZM118.595 267.11C118.595 266.186 118.581 265.471 118.598 264.753C118.616 263.883 118.114 263.681 117.36 263.684C116.583 263.692 116.138 263.969 116.178 264.816C116.212 265.53 116.069 266.286 116.253 266.956C116.54 267.989 115.333 269.988 117.605 269.821C119.578 269.676 118.134 267.848 118.595 267.11ZM115.934 239.337H116.011V242.148C116.011 242.883 116.423 243.164 117.112 243.148C117.661 243.134 118.147 243.023 118.14 242.341C118.123 240.395 118.12 238.448 118.036 236.505C118.005 235.747 117.37 235.676 116.75 235.704C116.069 235.733 115.942 236.194 115.936 236.741C115.928 237.605 115.934 238.472 115.934 239.337ZM115.247 318.881C115.123 317.474 115.771 315.711 113.314 315.884C111.057 316.043 112.257 317.69 112.136 318.65C111.989 319.815 111.607 321.305 113.831 321.226C115.886 321.155 115.045 319.747 115.247 318.881ZM104.745 291.846C104.745 291.482 104.737 291.266 104.747 291.049C104.813 289.892 104.829 288.974 103.137 288.962C101.443 288.951 101.466 289.875 101.514 291.027C101.538 291.606 101.518 292.186 101.538 292.764C101.596 294.431 102.838 295.163 104.221 294.285C105.224 293.644 104.528 292.556 104.745 291.846ZM116.586 161.805H116.451C116.451 160.283 116.47 158.764 116.439 157.244C116.426 156.721 116.631 155.963 115.715 155.972C114.876 155.982 114.91 156.67 114.918 157.24C114.966 160.279 115.031 163.317 115.099 166.358C115.109 166.873 115.135 167.447 115.838 167.447C116.534 167.447 116.582 166.886 116.583 166.362C116.589 164.843 116.586 163.323 116.586 161.805ZM115.997 129.345H115.624C115.624 127.254 115.638 125.165 115.612 123.077C115.607 122.699 115.731 122.095 115.093 122.109C114.503 122.123 114.549 122.695 114.555 123.095C114.601 127.278 114.668 131.459 114.731 135.643C114.737 136.09 114.799 136.574 115.373 136.563C115.94 136.549 115.996 136.067 115.996 135.616C116 133.526 115.997 131.435 115.997 129.345ZM120.761 377.442H120.805C120.805 377.153 120.862 376.849 120.795 376.578C120.62 375.89 121.347 374.622 119.722 374.827C118.609 374.966 117.509 375.084 117.686 376.683C117.774 377.468 117.675 378.275 117.756 379.062C117.814 379.613 117.41 380.553 118.477 380.511C119.298 380.479 120.368 380.557 120.717 379.588C120.948 378.95 120.761 378.163 120.761 377.442ZM118.523 257.914C118.503 257.914 118.48 257.914 118.46 257.911C118.422 257.116 118.364 256.321 118.35 255.527C118.335 254.739 118.034 254.333 117.178 254.351C116.315 254.368 116.061 254.799 116.075 255.58C116.104 257.101 116.118 258.621 116.099 260.143C116.086 261.027 116.558 261.232 117.331 261.216C118.109 261.2 118.569 260.954 118.529 260.083C118.498 259.362 118.523 258.636 118.523 257.914ZM115.095 104.341C114.879 104.343 114.664 104.347 114.449 104.351C114.449 108.991 114.443 113.628 114.471 118.27C114.473 118.466 114.785 118.805 114.988 118.83C115.458 118.898 115.546 118.482 115.55 118.114C115.592 113.514 115.427 108.923 115.095 104.341ZM104.782 300.183C104.782 299.608 104.754 299.245 104.787 298.889C104.907 297.686 104.606 297.035 103.168 297.049C101.727 297.061 101.458 297.738 101.558 298.928C101.611 299.573 101.652 300.232 101.582 300.872C101.421 302.388 102.142 302.668 103.499 302.561C105.513 302.401 104.566 300.924 104.782 300.183ZM115.982 378.328C115.982 378.04 115.993 377.753 115.979 377.467C115.928 376.535 116.345 375.403 114.592 375.507C113.052 375.597 112.597 376.232 112.786 377.655C112.889 378.433 112.852 379.231 112.846 380.019C112.835 380.896 113.16 381.399 114.119 381.258C114.924 381.141 115.961 381.369 115.983 380.048C115.993 379.475 115.983 378.9 115.982 378.328ZM117.37 203.943H117.307C117.307 202.566 117.305 201.191 117.307 199.813C117.309 199.159 117.16 198.667 116.347 198.697C115.671 198.72 115.489 199.14 115.493 199.701C115.518 202.31 115.556 204.917 115.592 207.526C115.6 208.084 115.751 208.51 116.43 208.544C117.263 208.583 117.37 208.059 117.37 207.423C117.369 206.264 117.37 205.103 117.37 203.943ZM114.737 275.715C114.737 275.27 114.73 274.982 114.74 274.694C114.779 273.508 114.918 272.46 113.056 272.506C111.159 272.55 111.448 273.674 111.472 274.813C111.489 275.534 111.498 276.256 111.528 276.975C111.551 277.55 111.512 278.227 112.289 278.306C112.992 278.379 113.927 278.565 114.378 278.213C115.184 277.585 114.596 276.46 114.737 275.715ZM114.993 291.258C114.779 290.413 115.673 288.756 113.34 288.807C110.681 288.867 111.931 290.753 111.737 291.91C111.551 293.021 111.582 293.979 113.317 293.934C115.264 293.885 115.117 292.764 114.993 291.258ZM104.7 275.578C104.7 275.201 104.695 274.986 104.7 274.771C104.718 273.627 104.928 272.57 103.076 272.516C101.123 272.458 101.482 273.627 101.457 274.724C101.444 275.226 101.447 275.725 101.458 276.228C101.496 277.947 102.505 278.695 104.04 278.06C105.382 277.508 104.344 276.268 104.7 275.578ZM122.432 257.677H122.377C122.377 256.953 122.359 256.232 122.378 255.513C122.405 254.593 121.997 254.233 121.067 254.267C120.208 254.296 119.942 254.7 119.958 255.483C119.986 256.997 120.007 258.514 119.99 260.03C119.978 260.886 120.395 261.158 121.188 261.148C121.947 261.137 122.454 260.934 122.436 260.058C122.419 259.264 122.432 258.469 122.432 257.677ZM115.115 299.396C114.783 298.508 115.979 296.765 113.549 296.761C111.409 296.756 111.649 298.104 111.782 299.374C111.895 300.457 110.982 302.099 113.354 302.13C115.562 302.156 115.075 300.753 115.115 299.396ZM109.917 291.659C109.903 289.044 109.24 288.345 107.309 289.02C105.658 289.598 106.572 291.123 106.5 292.194C106.369 294.143 107.281 294.719 109.133 294.098C110.607 293.603 109.57 292.343 109.917 291.659ZM101.5 283.333C101.5 283.835 101.478 284.195 101.504 284.552C101.568 285.478 101.174 286.596 102.899 286.538C104.447 286.488 104.894 285.864 104.74 284.445C104.656 283.668 104.743 282.869 104.708 282.085C104.654 280.868 102.917 279.9 101.971 280.64C101.039 281.365 101.681 282.529 101.5 283.333ZM109.966 299.928C109.966 299.481 109.94 299.189 109.97 298.905C110.099 297.625 109.823 296.912 108.243 296.967C106.794 297.019 106.277 297.504 106.464 298.893C106.53 299.389 106.546 299.914 106.471 300.409C106.206 302.164 107.058 302.44 108.597 302.323C110.568 302.172 109.811 300.773 109.966 299.928ZM109.712 275.624C109.712 275.232 109.686 274.871 109.716 274.515C109.825 273.235 109.491 272.57 107.967 272.566C106.327 272.561 106.262 273.428 106.327 274.608C106.367 275.324 106.383 276.044 106.351 276.759C106.308 277.734 106.699 278.084 107.704 278.221C110.061 278.543 109.881 277.095 109.712 275.624ZM106.333 283.469C106.856 284.455 105.393 286.341 108.022 286.336C110.323 286.329 109.835 284.892 109.872 283.591C109.917 282.118 110.097 280.737 107.798 280.825C105.477 280.912 106.784 282.547 106.333 283.469ZM111.2 248.375C111.2 248.953 111.2 249.243 111.202 249.533C111.21 250.604 110.96 251.679 112.754 251.663C114.559 251.65 114.525 250.656 114.457 249.416C114.411 248.619 114.396 247.822 114.406 247.023C114.417 246.141 114.052 245.797 113.13 245.682C110.336 245.334 111.355 247.367 111.2 248.375ZM105.26 377.834H105.238C105.238 377.474 105.187 377.106 105.248 376.757C105.568 374.904 104.303 374.468 102.959 374.445C101.19 374.414 102.144 375.885 101.993 376.689C101.852 377.453 101.997 378.265 101.975 379.056C101.926 380.713 103.286 380.559 104.248 380.727C105.632 380.968 105.156 379.804 105.248 379.127C105.308 378.703 105.26 378.265 105.26 377.834ZM114.751 145.861H114.803C114.803 147.666 114.793 149.47 114.807 151.272C114.813 151.845 114.777 152.514 115.628 152.504C116.492 152.497 116.416 151.805 116.401 151.251C116.294 147.716 116.168 144.183 116.043 140.651C116.027 140.229 116.072 139.704 115.493 139.643C114.73 139.561 114.759 140.168 114.755 140.666C114.744 142.397 114.751 144.13 114.751 145.861ZM117.877 228.418H117.76C117.76 227.262 117.754 226.105 117.764 224.951C117.77 224.269 117.545 223.855 116.774 223.865C116.081 223.872 115.663 224.112 115.68 224.859C115.723 227.172 115.767 229.483 115.819 231.795C115.834 232.52 116.26 232.796 116.943 232.808C117.752 232.822 117.881 232.307 117.88 231.669C117.877 230.586 117.877 229.501 117.877 228.418ZM101.711 320H101.719C101.719 320.364 101.764 320.731 101.713 321.085C101.407 323.137 102.5 323.015 103.851 322.468C106.031 321.588 104.676 319.709 104.962 318.304C105.085 317.706 105.268 316.592 104.136 316.724C103.189 316.836 101.784 316.631 101.713 318.265C101.689 318.843 101.711 319.421 101.711 320ZM116.898 176.588H116.834C116.834 175.074 116.85 173.558 116.826 172.041C116.816 171.408 116.877 170.628 115.904 170.66C115.049 170.688 115.163 171.395 115.163 171.948C115.165 174.907 115.181 177.866 115.205 180.827C115.208 181.387 115.133 182.053 115.996 182.077C117.011 182.101 116.884 181.334 116.894 180.704C116.912 179.333 116.898 177.962 116.898 176.588ZM115.62 216.304H115.663C115.663 217.598 115.662 218.889 115.663 220.183C115.663 220.833 116.053 221.05 116.635 221.054C117.178 221.059 117.71 220.972 117.7 220.296C117.657 217.713 117.583 215.129 117.492 212.544C117.472 211.948 117.082 211.687 116.482 211.682C115.806 211.674 115.624 212.073 115.621 212.641C115.618 213.861 115.62 215.082 115.62 216.304ZM122.068 239.716H122.001C122.001 238.709 122.011 237.701 121.997 236.693C121.987 235.767 121.326 235.739 120.642 235.729C119.97 235.72 119.531 235.924 119.541 236.696C119.564 238.567 119.573 240.437 119.587 242.31C119.596 243.255 120.278 243.251 120.944 243.269C121.611 243.289 122.068 243.064 122.068 242.307C122.066 241.443 122.068 240.579 122.068 239.716ZM109.574 266.828C109.191 265.723 110.616 263.365 107.512 263.695C106.453 263.806 106.011 264.282 106.242 265.187C106.665 266.852 105.111 269.161 107.271 270.141C109.08 270.96 109.62 270.093 109.574 266.828ZM117.279 190.646H116.983C116.983 189.204 116.997 187.759 116.975 186.316C116.967 185.815 116.945 185.256 116.22 185.231C115.472 185.205 115.212 185.614 115.224 186.316C115.276 189.059 115.316 191.805 115.346 194.549C115.354 195.304 115.574 195.823 116.454 195.78C117.291 195.738 117.281 195.143 117.281 194.545C117.279 193.246 117.279 191.946 117.279 190.646ZM106.086 248.709C106.086 248.925 106.049 249.153 106.093 249.358C106.301 250.314 105.387 251.779 107.482 251.844C109.435 251.906 109.574 250.868 109.455 249.404C109.392 248.613 109.384 247.806 109.443 247.015C109.551 245.582 108.598 245.628 107.613 245.543C106.506 245.447 105.965 245.791 106.079 246.97C106.132 247.546 106.086 248.13 106.086 248.709ZM114.688 266.878C114.688 266.234 114.654 265.586 114.694 264.944C114.777 263.603 113.859 263.692 112.979 263.686C112.065 263.681 111.23 263.692 111.303 264.998C111.375 266.286 111.363 267.578 111.355 268.867C111.349 269.67 111.685 269.984 112.5 270.05C114.546 270.218 114.719 270.006 114.688 266.878ZM106.536 318.899C106.558 321.742 107.179 322.333 109.417 321.514C111.182 320.87 110.052 319.278 110.272 318.137C110.642 316.258 109.705 315.839 107.937 316.061C105.681 316.343 106.872 317.997 106.536 318.899ZM119.254 228.236H119.481C119.481 229.39 119.503 230.544 119.473 231.699C119.449 232.661 119.948 232.914 120.819 232.925C121.685 232.939 121.975 232.544 121.955 231.751C121.902 229.515 121.852 227.278 121.824 225.04C121.812 224.076 121.285 223.855 120.429 223.85C119.435 223.844 119.207 224.336 119.247 225.207C119.29 226.214 119.254 227.226 119.254 228.236ZM104.674 267.091C104.674 266.658 104.64 266.22 104.68 265.793C104.807 264.469 104.612 263.627 102.899 263.653C101.077 263.681 101.448 264.843 101.426 265.864C101.403 266.947 101.461 268.032 101.423 269.114C101.389 270.129 101.766 270.572 102.826 270.433C103.736 270.316 104.817 270.547 104.688 269.04C104.63 268.394 104.678 267.741 104.674 267.091ZM106.983 378.2C106.983 378.345 106.997 378.49 106.983 378.633C106.792 380.409 107.184 381.445 109.374 381.388C111.709 381.327 110.836 379.772 110.968 378.658C111.027 378.161 110.918 377.646 110.954 377.143C111.035 376.057 110.546 375.649 109.473 375.509C106.977 375.184 106.951 375.164 106.983 378.2ZM104.535 249.097C104.535 248.237 104.477 247.651 104.545 247.083C104.732 245.547 103.879 245.28 102.601 245.286C100.812 245.292 101.232 246.701 101.443 247.445C101.872 248.961 99.9321 251.356 102.607 251.949C105.399 252.566 104.35 250.157 104.535 249.097ZM104.452 239.279H104.396C104.396 238.412 104.346 237.542 104.407 236.679C104.509 235.259 103.583 235.284 102.587 235.221C101.397 235.145 101.329 235.853 101.343 236.729C101.367 238.315 101.411 239.906 101.355 241.491C101.313 242.661 101.834 242.953 102.915 242.943C104.012 242.933 104.537 242.584 104.459 241.443C104.414 240.724 104.452 240 104.452 239.279ZM106.149 258.219C106.149 258.281 106.222 258.867 106.135 259.427C105.847 261.325 106.902 261.57 108.421 261.455C110.002 261.335 109.642 260.096 109.449 259.384C109.01 257.762 110.826 255.433 108.394 254.551C106.447 253.845 106.1 254.486 106.149 258.219ZM114.666 257.897H114.628C114.628 257.466 114.624 257.035 114.628 256.602C114.638 255.419 114.755 254.352 112.923 254.348C111.1 254.344 111.2 255.352 111.249 256.566C111.294 257.643 111.343 258.732 111.263 259.803C111.164 261.109 111.788 261.389 112.937 261.335C113.974 261.288 114.825 261.232 114.678 259.841C114.608 259.199 114.666 258.546 114.666 257.897ZM106.059 238.909H106.071C106.071 239.557 106.113 240.207 106.061 240.85C105.958 242.154 106.105 243.009 107.828 242.975C109.58 242.939 109.365 241.906 109.338 240.821C109.303 239.525 109.215 238.227 109.262 236.935C109.308 235.593 108.526 235.469 107.474 235.409C106.263 235.344 105.978 235.922 106.053 236.967C106.097 237.612 106.059 238.261 106.059 238.909ZM121.695 216.324C121.663 216.324 121.631 216.324 121.6 216.324C121.6 215.171 121.583 214.018 121.603 212.864C121.621 211.852 120.993 211.725 120.184 211.703C119.312 211.683 119.07 212.119 119.08 212.9C119.113 215.207 119.145 217.512 119.123 219.819C119.113 220.775 119.549 221.069 120.433 221.073C121.349 221.077 121.741 220.714 121.705 219.784C121.663 218.633 121.695 217.477 121.695 216.324ZM104.654 258.198H104.64C104.64 257.407 104.588 256.612 104.65 255.825C104.751 254.549 103.963 254.477 103.012 254.454C102.019 254.427 101.329 254.579 101.383 255.827C101.448 257.335 101.433 258.847 101.393 260.356C101.361 261.46 101.933 261.701 102.88 261.594C103.708 261.502 104.716 261.723 104.658 260.353C104.63 259.636 104.654 258.915 104.654 258.198ZM114.318 239.45H114.294C114.294 238.8 114.239 238.148 114.304 237.506C114.443 236.176 114.052 235.594 112.555 235.568C110.872 235.537 110.88 236.427 110.948 237.609C111.019 238.903 111.086 240.203 111.031 241.495C110.964 243.039 111.954 242.956 113.011 243.028C114.338 243.124 114.358 242.329 114.322 241.393C114.298 240.747 114.318 240.097 114.318 239.45ZM109.133 228.339H109.074C109.074 227.188 109.058 226.04 109.077 224.891C109.102 223.498 108.052 223.802 107.252 223.706C106.295 223.591 106.006 224.078 106.021 224.968C106.059 226.906 106.111 228.85 106.019 230.787C105.954 232.125 106.454 232.508 107.748 232.518C109.195 232.53 109.177 231.711 109.14 230.71C109.109 229.919 109.133 229.13 109.133 228.339ZM121.546 203.865H121.416C121.416 202.568 121.395 201.27 121.423 199.971C121.447 198.856 120.784 198.712 119.876 198.702C118.877 198.693 118.661 199.213 118.696 200.066C118.801 202.516 118.897 204.967 118.963 207.419C118.988 208.347 119.435 208.649 120.32 208.663C121.299 208.679 121.565 208.188 121.551 207.329C121.53 206.175 121.546 205.02 121.546 203.865ZM104.342 227.987H104.31C104.31 227.047 104.244 226.101 104.328 225.167C104.442 223.915 103.873 223.571 102.708 223.493C101.437 223.41 101.27 224.021 101.294 225.042C101.34 226.995 101.357 228.949 101.309 230.901C101.284 231.981 101.62 232.45 102.784 232.47C104.054 232.496 104.453 231.999 104.358 230.807C104.285 229.873 104.342 228.927 104.342 227.987ZM121.288 190.734H121.168C121.168 189.361 121.168 187.985 121.168 186.61C121.17 185.773 121.156 185.022 119.95 185.036C118.814 185.048 118.442 185.517 118.485 186.62C118.588 189.223 118.637 191.828 118.644 194.432C118.647 195.405 118.918 195.884 119.99 195.894C121.093 195.905 121.337 195.384 121.299 194.422C121.252 193.194 121.288 191.963 121.288 190.734ZM108.714 190.412H108.643C108.643 189.255 108.611 188.101 108.652 186.946C108.686 185.954 108.547 185.273 107.277 185.332C106.218 185.38 105.684 185.682 105.723 186.845C105.807 189.299 105.838 191.755 105.819 194.211C105.809 195.433 106.472 195.599 107.47 195.622C108.637 195.652 108.74 194.981 108.722 194.094C108.696 192.866 108.714 191.638 108.714 190.412ZM108.964 203.548C108.914 203.548 108.863 203.548 108.811 203.548C108.811 202.316 108.774 201.082 108.824 199.851C108.873 198.677 108.263 198.395 107.224 198.353C106.118 198.309 105.857 198.826 105.876 199.794C105.926 202.186 105.958 204.581 105.928 206.973C105.912 208.069 106.274 208.51 107.428 208.524C108.732 208.542 109.052 207.969 108.978 206.81C108.909 205.728 108.964 204.635 108.964 203.548ZM109.048 216.195H109.01C109.01 215.036 108.964 213.875 109.024 212.719C109.094 211.395 108.215 211.443 107.317 211.373C106.226 211.288 105.951 211.821 105.974 212.8C106.024 215.044 106.049 217.292 105.996 219.533C105.965 220.696 106.252 221.222 107.557 221.199C108.881 221.175 109.133 220.58 109.063 219.451C108.994 218.371 109.048 217.282 109.048 216.195ZM114.262 228.344H114.233C114.233 227.258 114.199 226.169 114.243 225.082C114.296 223.71 113.338 223.873 112.474 223.832C111.516 223.788 110.759 223.847 110.819 225.163C110.906 227.045 110.951 228.939 110.843 230.819C110.755 232.335 111.471 232.602 112.772 232.675C114.397 232.771 114.296 231.797 114.266 230.738C114.244 229.943 114.262 229.144 114.262 228.344ZM104.195 190.586H104.137C104.137 189.358 104.102 188.13 104.147 186.904C104.191 185.78 103.704 185.388 102.599 185.38C101.415 185.372 101.124 185.926 101.146 186.98C101.194 189.291 101.206 191.604 101.17 193.913C101.15 195.038 101.407 195.636 102.728 195.61C104.066 195.586 104.271 194.937 104.209 193.836C104.145 192.757 104.195 191.67 104.195 190.586ZM101.263 216.366H101.29C101.29 217.598 101.323 218.83 101.277 220.06C101.242 221.069 101.572 221.543 102.661 221.401C103.555 221.288 104.362 221.32 104.31 220C104.221 217.612 104.213 215.219 104.29 212.832C104.334 211.522 103.734 211.28 102.603 211.236C101.284 211.185 101.24 211.944 101.26 212.889C101.281 214.048 101.263 215.209 101.263 216.366ZM114.154 216.54C114.098 216.538 114.04 216.538 113.982 216.538C113.982 215.316 113.959 214.094 113.988 212.872C114.028 211.397 112.967 211.616 112.054 211.543C110.997 211.455 110.67 211.972 110.698 212.952C110.759 215.036 110.825 217.125 110.773 219.209C110.741 220.495 110.961 221.169 112.512 221.147C114.095 221.125 114.28 220.384 114.169 219.128C114.094 218.271 114.154 217.403 114.154 216.54ZM104.244 203.385H104.221C104.221 202.153 104.154 200.915 104.239 199.688C104.336 198.257 103.438 198.275 102.436 198.205C101.208 198.118 101.204 198.875 101.21 199.728C101.23 202.121 101.284 204.513 101.224 206.906C101.192 208.156 101.677 208.528 102.884 208.52C104.141 208.51 104.294 207.864 104.257 206.864C104.211 205.706 104.244 204.545 104.244 203.385ZM108.448 161.944C108.384 161.944 108.321 161.944 108.257 161.944C108.257 160.428 108.233 158.913 108.267 157.397C108.289 156.421 107.959 155.967 106.898 155.967C105.795 155.967 105.578 156.495 105.59 157.443C105.632 160.33 105.648 163.218 105.614 166.106C105.602 167.141 105.801 167.717 107.033 167.678C108.21 167.639 108.509 167.119 108.463 166.06C108.402 164.69 108.448 163.316 108.448 161.944ZM101.105 176.717H101.124C101.124 178.164 101.159 179.613 101.113 181.056C101.079 182.154 101.26 182.832 102.637 182.761C103.978 182.692 104.113 182.008 104.084 180.922C104.006 178.102 103.977 175.28 103.992 172.461C103.998 171.352 103.775 170.712 102.452 170.708C101.146 170.704 101.089 171.435 101.099 172.379C101.117 173.826 101.105 175.273 101.105 176.717ZM107.649 94.2657C107.583 94.2657 107.516 94.2657 107.45 94.2657C107.45 92.5322 107.49 90.7957 107.428 89.0646C107.406 88.4645 107.842 87.4251 106.592 87.505C105.755 87.5602 105.159 87.8963 105.183 88.9893C105.262 92.6021 105.244 96.2149 105.244 99.8277C105.244 100.654 105.411 101.217 106.419 101.235C107.575 101.257 107.669 100.569 107.657 99.6848C107.633 97.8785 107.649 96.0721 107.649 94.2657ZM121.1 176.362H120.95C120.95 174.985 120.94 173.609 120.954 172.234C120.964 171.213 120.896 170.386 119.477 170.424C118.146 170.46 118.197 171.251 118.209 172.167C118.243 174.919 118.269 177.671 118.257 180.424C118.251 181.411 118.364 182.085 119.64 182.065C120.805 182.043 121.156 181.568 121.113 180.489C121.061 179.114 121.1 177.737 121.1 176.362ZM101.01 161.777H101.079C101.079 163.367 101.103 164.959 101.069 166.549C101.049 167.544 101.387 168.013 102.464 167.917C103.38 167.838 103.949 167.629 103.925 166.533C103.863 163.423 103.849 160.315 103.871 157.205C103.881 156.03 103.185 156 102.319 155.974C101.401 155.944 100.988 156.29 101.003 157.22C101.027 158.739 101.01 160.257 101.01 161.777ZM120.795 162.001H120.681C120.681 160.412 120.66 158.822 120.689 157.232C120.709 156.27 120.409 155.768 119.332 155.779C118.243 155.793 117.76 156.163 117.814 157.308C117.951 160.266 118.036 163.228 118.104 166.189C118.123 167.079 118.439 167.498 119.382 167.493C120.354 167.489 120.856 167.188 120.811 166.117C120.749 164.746 120.795 163.373 120.795 162.001ZM113.893 203.629H113.847C113.847 202.403 113.789 201.175 113.863 199.953C113.95 198.476 112.963 198.623 112.013 198.559C110.982 198.49 110.369 198.707 110.425 199.943C110.524 202.175 110.578 204.412 110.532 206.646C110.504 208.009 110.922 208.548 112.374 208.566C113.925 208.585 113.952 207.767 113.903 206.658C113.857 205.65 113.893 204.638 113.893 203.629ZM120.564 146.07H120.344C120.344 144.331 120.312 142.59 120.355 140.853C120.383 139.8 119.91 139.466 118.914 139.476C117.925 139.484 117.462 139.784 117.504 140.863C117.635 144.339 117.731 147.819 117.772 151.296C117.786 152.419 118.368 152.582 119.289 152.588C120.222 152.596 120.586 152.199 120.572 151.288C120.546 149.549 120.564 147.809 120.564 146.07ZM108.201 146.294H108.147C108.147 144.488 108.106 142.677 108.161 140.873C108.196 139.778 107.657 139.536 106.705 139.527C105.677 139.522 105.536 140.094 105.542 140.917C105.57 144.46 105.596 148.004 105.578 151.545C105.572 152.526 106.037 152.767 106.912 152.761C107.8 152.751 108.239 152.462 108.215 151.499C108.169 149.766 108.201 148.029 108.201 146.294ZM108.104 129.452H107.856C107.856 127.5 107.862 125.547 107.852 123.596C107.849 122.854 107.857 122.137 106.766 122.113C105.681 122.091 105.413 122.638 105.425 123.59C105.475 127.495 105.5 131.4 105.514 135.307C105.518 136.199 105.628 136.841 106.796 136.793C107.852 136.747 108.147 136.294 108.12 135.308C108.066 133.359 108.104 131.404 108.104 129.452ZM103.43 94.3611H103.39C103.39 92.63 103.388 90.9013 103.392 89.1702C103.394 88.3535 103.472 87.5842 102.221 87.6098C101.132 87.6316 100.892 88.1424 100.9 89.0887C100.93 92.6952 100.94 96.2987 100.916 99.903C100.908 100.861 101.135 101.372 102.239 101.342C103.406 101.308 103.452 100.639 103.438 99.7679C103.41 97.9654 103.43 96.1637 103.43 94.3611ZM108.611 176.801H108.565C108.565 175.215 108.529 173.625 108.579 172.039C108.612 170.918 107.998 170.749 107.079 170.748C106.117 170.748 105.61 171.018 105.632 172.099C105.689 175.058 105.699 178.019 105.67 180.976C105.658 182.067 106.001 182.526 107.168 182.49C108.304 182.455 108.682 182.015 108.626 180.915C108.557 179.548 108.611 178.174 108.611 176.801ZM113.817 190.73H113.774C113.774 189.358 113.722 187.987 113.787 186.62C113.847 185.366 113.141 185.213 112.154 185.245C111.174 185.277 110.28 185.209 110.34 186.67C110.435 189.045 110.449 191.429 110.379 193.804C110.34 195.141 110.68 195.735 112.16 195.763C113.764 195.795 113.911 194.994 113.831 193.757C113.765 192.751 113.817 191.737 113.817 190.73ZM113.629 176.723H113.467C113.467 175.275 113.408 173.824 113.487 172.379C113.559 171.075 113.116 170.589 111.756 170.638C110.447 170.686 109.97 171.12 110.042 172.447C110.183 175.121 110.222 177.803 110.254 180.483C110.266 181.599 110.296 182.431 111.848 182.365C113.269 182.303 113.778 181.821 113.651 180.412C113.543 179.191 113.629 177.953 113.629 176.723ZM119.666 94.1143C119.6 94.1143 119.535 94.1143 119.469 94.1143C119.469 92.2326 119.483 90.3548 119.463 88.4723C119.453 87.6456 119.691 86.6837 118.245 86.7319C116.975 86.7738 116.661 87.3676 116.691 88.5026C116.788 92.3358 116.864 96.1675 116.881 100.001C116.886 101.052 117.299 101.376 118.293 101.388C119.332 101.398 119.704 100.987 119.68 99.9713C119.634 98.0197 119.666 96.0658 119.666 94.1143ZM107.778 111.809H107.708C107.708 109.633 107.689 107.457 107.717 105.281C107.728 104.353 107.327 103.979 106.411 103.993C105.568 104.003 105.268 104.405 105.278 105.203C105.33 109.482 105.371 113.76 105.393 118.037C105.399 118.916 105.663 119.373 106.653 119.337C107.689 119.299 107.792 118.709 107.786 117.9C107.764 115.871 107.778 113.838 107.778 111.809ZM103.843 146.155H103.803C103.803 144.424 103.751 142.691 103.824 140.967C103.871 139.814 103.388 139.482 102.303 139.456C101.24 139.43 100.916 139.847 100.93 140.847C100.969 144.378 100.978 147.908 100.961 151.439C100.958 152.431 101.29 152.864 102.349 152.846C103.426 152.827 103.917 152.504 103.863 151.342C103.786 149.615 103.843 147.884 103.843 146.155ZM113.418 161.723H113.37C113.37 160.279 113.307 158.832 113.39 157.391C113.471 156.004 112.69 155.929 111.628 155.922C110.51 155.917 109.882 156.135 109.931 157.469C110.025 160.211 110.039 162.958 109.97 165.698C109.934 167.042 110.24 167.628 111.745 167.628C113.331 167.632 113.499 166.87 113.434 165.623C113.366 164.325 113.418 163.023 113.418 161.723ZM103.595 111.658H103.463C103.463 109.565 103.449 107.473 103.47 105.38C103.476 104.504 103.384 103.85 102.228 103.824C101.105 103.798 100.91 104.343 100.912 105.281C100.934 109.611 100.924 113.94 100.918 118.27C100.916 119.057 100.982 119.703 102.047 119.675C103.092 119.647 103.643 119.311 103.612 118.153C103.555 115.988 103.595 113.822 103.595 111.658ZM117.317 129.152H117.396C117.396 131.183 117.43 133.214 117.383 135.243C117.359 136.252 117.704 136.706 118.754 136.674C119.652 136.644 120.314 136.545 120.284 135.392C120.173 131.261 120.097 127.127 120.029 122.993C120.014 122.107 119.704 121.67 118.742 121.688C117.782 121.709 117.267 121.97 117.299 123.061C117.359 125.088 117.317 127.121 117.317 129.152ZM119.908 111.624H119.779C119.779 109.596 119.761 107.566 119.789 105.54C119.801 104.533 119.397 104.124 118.366 104.136C117.391 104.146 116.898 104.391 116.93 105.481C117.047 109.464 117.112 113.447 117.176 117.431C117.19 118.354 117.396 118.906 118.519 118.906C119.754 118.906 119.948 118.298 119.922 117.274C119.875 115.392 119.908 113.506 119.908 111.624ZM113.31 146.062H113.096C113.096 144.468 113.048 142.874 113.112 141.284C113.161 140.016 112.764 139.48 111.387 139.502C110.039 139.523 109.638 139.978 109.695 141.298C109.835 144.48 109.918 147.667 109.879 150.853C109.861 152.272 110.286 152.749 111.723 152.723C113.15 152.695 113.396 152.06 113.332 150.837C113.247 149.249 113.31 147.653 113.31 146.062ZM103.786 129.623H103.671C103.671 127.675 103.648 125.728 103.68 123.782C103.698 122.783 103.515 122.137 102.287 122.125C101.031 122.113 100.904 122.783 100.912 123.77C100.94 127.663 100.947 131.559 100.922 135.452C100.916 136.465 101.065 137.101 102.325 137.032C103.426 136.97 103.845 136.582 103.803 135.464C103.734 133.518 103.786 131.569 103.786 129.623ZM112.579 94.2493H112.527C112.527 92.5866 112.575 90.9191 112.508 89.2579C112.472 88.383 113.02 87.1433 111.22 87.1612C109.736 87.1767 109.09 87.7535 109.098 89.1803C109.112 92.7255 109.169 96.2747 109.122 99.8199C109.104 101.249 109.964 101.211 110.961 101.272C112.162 101.348 112.665 100.946 112.601 99.6786C112.512 97.8722 112.579 96.0596 112.579 94.2493ZM112.917 111.768H112.665C112.665 109.749 112.601 107.726 112.686 105.712C112.746 104.271 111.997 104.099 110.823 104.067C109.559 104.031 109.209 104.512 109.248 105.72C109.376 109.685 109.445 113.652 109.455 117.618C109.459 118.81 109.783 119.339 111.055 119.225C112.126 119.126 113.038 119.142 112.945 117.606C112.828 115.666 112.917 113.715 112.917 111.768ZM113.009 129.402H112.949C112.949 127.525 112.895 125.643 112.967 123.764C113.015 122.525 112.734 121.9 111.303 121.988C110.117 122.06 109.447 122.223 109.489 123.665C109.596 127.493 109.614 131.326 109.555 135.154C109.531 136.678 110.359 136.684 111.476 136.726C112.766 136.773 113.074 136.209 113.026 135.038C112.953 133.163 113.009 131.282 113.009 129.402ZM125.042 399.433H124.582C124.582 394.442 124.605 389.45 124.556 384.459C124.549 383.815 125.049 382.679 123.72 382.684C122.655 382.689 122.558 383.525 122.575 384.396C122.794 394.377 122.995 404.358 123.221 414.338C123.237 415.001 123.02 415.976 124.119 415.977C125.411 415.979 125.024 414.895 125.025 414.189C125.053 409.27 125.042 404.352 125.042 399.433ZM124.262 348.577H123.555C123.555 341.77 123.545 334.962 123.563 328.157C123.567 327.075 123.261 326.156 122.076 326.214C120.801 326.276 121.388 327.416 121.397 328.062C121.484 334.507 121.629 340.95 121.76 347.394C121.908 354.634 122.048 361.874 122.221 369.115C122.235 369.664 121.931 370.592 123.04 370.486C123.744 370.42 124.248 370.014 124.258 369.213C124.266 368.706 124.262 368.199 124.262 367.693V348.577ZM116.411 400.306H116.029C116.029 395.599 116.029 390.891 116.027 386.184C116.027 385.313 116.178 384.404 114.765 384.487C113.609 384.556 112.891 384.711 112.917 386.177C113.076 395.447 113.161 404.717 113.243 413.987C113.255 415.144 113.41 415.885 114.867 415.913C116.405 415.944 116.43 415.116 116.423 413.993C116.393 409.431 116.411 404.869 116.411 400.306ZM105.554 399.979H105.3C105.3 395.275 105.242 390.57 105.33 385.869C105.361 384.138 104.29 384.053 103.102 383.951C101.548 383.816 102.037 385.032 102.037 385.75C102.049 395.014 102.138 404.276 102.12 413.54C102.117 415.041 102.587 415.538 104.074 415.595C105.705 415.657 105.562 414.706 105.56 413.655C105.546 409.097 105.554 404.538 105.554 399.979ZM121.582 400.022C121.369 400.023 121.156 400.023 120.944 400.023C120.944 395.101 120.902 390.18 120.968 385.259C120.987 383.644 120.361 383.558 119 383.858C117.635 384.16 117.778 385.033 117.792 385.971C117.919 395.382 118.082 404.792 118.14 414.205C118.147 415.724 118.754 415.975 120.059 416.026C121.589 416.085 121.614 415.29 121.601 414.137C121.554 409.432 121.582 404.727 121.582 400.022ZM111.454 400.31H111.136C111.136 395.679 111.061 391.047 111.168 386.42C111.22 384.228 109.718 384.756 108.533 384.579C107.082 384.363 107.076 385.287 107.085 386.315C107.164 395.575 107.263 404.835 107.263 414.097C107.263 416.231 108.728 415.542 109.801 415.722C111.216 415.957 111.492 415.243 111.476 413.983C111.419 409.425 111.454 404.868 111.454 400.31ZM120.717 348.688C119.921 341.454 119.914 334.211 119.9 326.971C119.896 325.423 119.014 325.131 117.863 325.067C116.426 324.99 116.983 326.156 116.989 326.788C117.154 341.27 117.388 355.751 117.518 370.232C117.536 372.267 118.448 372.074 119.801 371.667C121.011 371.305 120.715 370.369 120.715 369.539C120.719 362.589 120.717 355.638 120.717 348.688ZM105.195 348.591H105.07C105.07 341.564 105.077 334.537 105.066 327.512C105.063 325.467 104.467 325.187 102.609 326.1C101.426 326.681 101.756 327.665 101.759 328.543C101.796 341.87 101.856 355.2 101.913 368.529C101.916 369.036 101.874 369.553 101.959 370.047C102.214 371.505 103.555 371.488 104.519 371.551C105.689 371.625 105.163 370.472 105.165 369.886C105.208 362.79 105.195 355.689 105.195 348.591ZM112.144 348.487H112.665C112.665 355.955 112.675 363.424 112.655 370.89C112.651 371.978 112.796 372.695 114.179 372.613C115.403 372.541 115.975 372.242 115.954 370.844C115.733 356.057 115.558 341.27 115.411 326.48C115.397 325.105 114.907 324.556 113.523 324.489C111.788 324.407 112.154 325.574 112.15 326.526C112.14 333.845 112.144 341.166 112.144 348.487ZM110.854 348.428H110.347C110.347 341.037 110.359 333.644 110.328 326.252C110.326 325.63 110.737 324.74 109.63 324.481C108.026 324.101 106.625 325.133 106.635 326.769C106.732 341.337 106.88 355.906 106.908 370.476C106.909 372.514 108.15 372.373 109.425 372.551C111.142 372.79 110.85 371.586 110.852 370.607C110.858 363.215 110.854 355.822 110.854 348.428ZM145.733 348.531C145.711 343.782 144.688 339.292 142.631 335.049C139.491 328.575 134.662 323.73 128.39 320.242C126.697 319.302 126.415 319.694 126.402 321.506C126.391 323.412 127.033 324.417 128.732 325.378C146.742 335.558 147.388 359.28 129.9 370.419C127.686 371.83 127.075 373.26 127.285 375.648C127.43 377.263 127.846 377.308 129.062 376.565C139.568 370.145 145.218 360.862 145.733 348.531ZM127.513 368.131C127.754 368.03 128.036 367.955 128.271 367.807C142.736 358.823 142.736 338.006 128.271 329.126C127.853 328.871 127.279 328.462 126.941 328.583C126.27 328.824 126.592 329.591 126.6 330.123C126.76 342.224 126.943 354.324 127.13 366.426C127.14 366.987 127.021 367.593 127.513 368.131ZM98.9602 348.952H98.8376C98.8376 342.571 98.8057 336.188 98.8593 329.805C98.8733 328.15 98.4898 327.939 97.0607 328.796C81.6391 338.028 81.6492 359.431 97.0808 368.511C98.5573 369.379 99.0083 369.262 98.9882 367.446C98.9167 361.281 98.9602 355.117 98.9602 348.952ZM76.5638 349.545C76.5817 349.83 76.5879 350.703 76.7012 351.562C76.8922 352.998 77.0451 354.449 77.3944 355.848C80.1572 366.825 87.0032 374.277 97.3052 378.683C97.7818 378.887 98.7335 379.639 98.8772 378.594C99.1077 376.89 99.0681 375.114 98.8709 373.399C98.7522 372.357 97.476 372.266 96.6912 371.807C87.2376 366.277 81.7626 358.326 82.4069 347.104C82.9751 337.164 88.3663 330.097 96.8619 325.291C98.2072 324.528 99.0736 323.793 98.8251 322.148C98.7297 321.51 98.7615 320.844 98.8073 320.197C98.9129 318.736 98.5767 318.255 96.9908 318.896C84.9957 323.751 76.5522 336.121 76.5638 349.545ZM115.465 80.6761C115.532 80.2554 115.582 79.8277 115.671 79.4108C116.949 73.3294 118.239 67.2527 119.509 61.1698C119.684 60.3291 120.195 59.7368 120.975 59.965C122.011 60.2654 121.465 61.1279 121.288 61.7932C119.463 68.6477 117.782 75.5317 116.753 82.5586C116.645 83.2937 116.308 84.0452 117.55 84.039C118.424 84.0328 118.96 83.9776 119.006 82.7674C119.161 78.5561 120.455 74.5854 122.754 71.1139C124.344 68.7129 124.904 66.3088 124.744 63.5444C123.63 44.4146 124.334 25.2677 124.308 6.12625C124.304 3.05995 124.382 3.19114 121.228 3.4512C115.258 3.9418 109.342 5.42682 103.269 4.24378C100.286 3.6639 97.2198 3.59636 94.1675 3.59015C92.5652 3.5886 91.806 3.92007 92.1383 5.82971C93.7141 14.8539 94.1038 23.9915 94.3957 33.1213C94.7714 44.7903 94.8886 56.4679 95.6952 68.119C95.7969 69.5676 95.8225 71.072 96.9652 72.1712C99.9802 75.0722 100.634 78.8045 100.731 82.7294C100.798 85.4145 100.765 85.3726 103.335 85.0147C105.932 84.6507 104.644 82.7534 104.519 81.6441C103.806 75.3788 102.323 69.2578 100.624 63.1905C100.457 62.5904 99.9919 61.7893 100.777 61.5013C101.645 61.1877 101.683 62.2069 101.955 62.7356C102.152 63.1152 102.249 63.5499 102.367 63.9698C104.131 70.2476 105.61 76.5789 106.083 83.1105C106.124 83.6889 105.9 84.719 106.848 84.5358C107.704 84.3712 107.168 83.4808 107.082 82.8901C106.434 78.3791 105.666 73.8821 105.163 69.3549C104.167 60.4323 102.979 51.5409 101.323 42.7153C101.156 41.8234 101.187 41.0386 99.8529 41.1853C98.9191 41.287 98.4518 40.5099 98.4378 39.6056C98.4261 38.8604 98.5534 38.0833 99.4291 37.8745C100.379 37.6478 101.164 38.0313 101.607 38.8922C101.87 39.3991 101.985 39.9867 102.128 40.5472C104.705 50.7584 105.663 61.2172 106.94 71.6286C107.45 75.8019 108.172 79.9495 108.797 84.1088C108.909 80.392 108.519 76.7458 108.271 73.0872C107.176 56.9523 104.205 41.072 101.87 25.1047C101.639 23.5444 101.842 21.9786 99.2684 22.8387C97.9115 23.2921 96.7843 22.0578 96.5933 20.5992C96.3752 18.924 97.1499 17.654 98.7561 16.9802C100.314 16.3265 101.01 17.2705 101.596 18.4846C102.36 20.0705 102.686 21.7815 102.983 23.4831C106.407 43.2502 109.574 63.0476 110.375 83.1385C110.401 83.7968 110.304 84.476 111.333 84.4387C112.313 84.4023 112.53 83.8822 112.505 83.0275C112.468 81.6504 112.456 80.2694 112.505 78.8938C112.541 77.9716 112.03 76.676 112.824 76.211C114.014 75.5139 113.744 74.5854 113.837 73.6415C114.485 67.2287 114.966 60.7918 115.819 54.4069C117.179 44.2182 118.792 34.063 120.288 23.8922C120.413 23.0375 120.558 22.2627 119.388 21.7954C117.895 21.2031 117.744 19.8578 118.261 18.4986C118.583 17.654 119.332 16.7814 120.234 17.3225C121.359 17.9979 122.764 18.924 122.398 20.5216C121.266 25.4719 121.122 30.5596 120.165 35.5293C119.982 36.4857 119.791 37.2729 120.82 38.1904C122.339 39.5419 121.902 41.1597 120.028 41.7481C118.988 42.0757 119.169 42.7456 119.077 43.407C118.247 49.4325 117.291 55.444 116.638 61.4896C115.946 67.8846 115.014 74.2757 115.465 80.6761ZM116.329 540.973C134.667 541.417 153.549 539.428 170.077 534.07C192.521 526.795 208.658 512.818 215.256 489.399C216.847 483.749 218.131 478.038 218.475 472.118C219.417 455.896 217.607 440.109 211.361 424.999C207.65 416.021 203.789 407.106 199.19 398.533C195.693 392.009 193.398 384.831 189.522 378.591C182.922 367.963 181.236 356.496 182.563 344.539C183.441 336.649 185.445 328.869 187.215 321.1C189.411 311.464 188.825 302.22 184.006 293.463C179.817 285.854 173.936 280.276 165.224 278.11C161.987 277.305 158.763 276.46 155.479 275.876C146.347 274.247 137.243 272.425 127.877 272.746C126.166 272.804 125.423 273.116 125.56 275.03C125.769 277.904 125.67 280.799 125.715 283.685C125.866 293.323 126.079 302.961 126.136 312.599C126.149 314.519 126.727 315.471 128.498 316.373C142.215 323.368 149.744 334.463 149.113 350.061C148.559 363.751 141.341 373.587 129.481 380.084C127.905 380.948 127.378 381.842 127.426 383.599C127.68 393.241 127.788 402.888 127.984 412.533C128.068 416.579 127.625 415.975 131.468 416.065C138.354 416.227 145.242 416.408 152.128 416.601C153.215 416.631 154.298 416.617 154.507 418.182C155.069 422.429 155.348 426.696 155.558 430.968C155.649 432.829 154.717 433.981 152.728 434.088C145.647 434.471 138.779 436.059 132.116 438.313C120.368 442.288 108.814 442.165 97.1934 437.839C90.262 435.258 83.1141 433.922 75.6315 434.993C74.2311 435.192 72.6529 436.527 71.341 435.269C70.1091 434.088 70.5904 432.239 70.439 430.686C70.0718 426.931 69.9026 423.155 70.3777 419.395C70.5306 418.203 70.6455 416.95 72.4084 416.819C80.5764 416.216 88.7141 415.105 96.9233 415.285C98.7498 415.324 99.2568 414.807 99.2288 412.987C99.0875 403.996 98.9959 395.001 99.0798 386.008C99.1015 383.728 98.4976 382.651 96.2658 381.776C80.6773 375.651 71.4823 360.51 73.8034 344.062C75.765 330.17 84.0238 320.868 96.7765 315.453C98.2926 314.811 98.8772 314.09 98.7995 312.446C98.5348 306.951 98.4937 301.433 98.5092 295.95C98.5271 289.006 98.3322 282.057 98.5907 275.115C98.6544 273.428 98.1079 272.947 96.4885 273.157C92.7484 273.645 88.9944 274 85.2504 274.448C77.6095 275.364 70.1215 276.864 62.7204 279.11C56.2183 281.081 51.7904 285.694 46.858 289.775C41.896 293.881 39.2194 299.275 38.3647 305.475C37.3788 312.625 37.7825 319.803 39.2986 326.88C40.7968 333.875 43.6946 340.55 44.0478 347.811C44.4042 355.123 44.0183 362.322 40.6183 369.008C36.2835 377.535 31.9076 386.04 27.486 394.522C19.2706 410.283 11.462 426.149 6.67393 443.436C2.2018 459.583 2.13038 475.567 6.53886 491.513C10.5949 506.188 18.3251 518.502 31.57 526.908C39.8948 532.191 48.9749 535.052 58.5674 536.677C65.4211 537.836 72.3447 538.079 79.2528 538.641C90.7449 539.578 102.231 540.428 116.329 540.973ZM117.495 543.856C101.103 543.308 88.3982 542.26 75.6936 540.949C66.6756 540.018 57.6071 539.571 48.7917 537.322C31.4908 532.907 18.166 523.216 9.62069 507.318C3.45316 495.843 0.906188 483.526 0.119818 470.586C-0.744956 456.364 3.21251 443.221 7.44245 429.988C11.7407 416.542 19.1138 404.594 25.2743 392.054C27.9913 386.524 30.8247 381.05 33.6869 375.594C35.2309 372.654 36.8983 369.801 38.1877 366.713C41.3611 359.133 41.7485 351.409 40.0516 343.47C38.402 335.749 36.0693 328.155 35.6602 320.205C35.4808 316.731 35.2526 313.243 35.3597 309.771C35.7735 296.44 42.5419 286.936 53.7482 280.406C62.2197 275.469 71.657 273.398 81.2657 272.113C86.5103 271.411 91.7765 270.853 97.049 270.419C98.6249 270.29 98.5449 269.509 98.5371 268.448C98.4991 261.848 98.4813 255.249 98.4518 248.649C98.4044 238.456 98.3602 228.265 98.3066 218.074C98.2507 207.822 98.1738 197.574 98.1257 187.321C98.076 177.338 98.0877 167.351 98.0147 157.365C97.8478 134.53 97.6367 111.694 97.4604 88.8581C97.4379 85.8337 98.1257 82.8047 97.2951 79.7803C96.8914 78.3038 96.6632 76.6884 95.5562 75.6148C93.0621 73.2006 92.3386 70.2119 92.2555 66.9267C92.2338 66.058 92.1321 65.1894 92.0428 64.3254C91.9931 63.848 92.0964 63.2106 91.3535 63.1982C90.7728 63.1928 90.1487 63.2758 89.9422 63.9652C89.7753 64.5179 89.6759 65.0923 89.5649 65.6606C89.2389 67.3435 88.3143 68.4591 86.5343 68.5483C84.7 68.6415 83.2173 67.8862 82.5815 66.1038C81.8658 64.0925 81.8379 61.9624 82.1064 59.8641C82.3091 58.2921 83.3819 57.6936 84.9104 57.8031C85.9917 57.8823 87.1344 58.4233 87.9153 56.9903C88.2072 56.4516 88.8469 56.8848 89.0596 57.4134C89.2746 57.9444 89.3841 58.5204 89.5385 59.077C89.7015 59.6607 89.561 60.4797 90.5857 60.3803C91.6353 60.2771 91.8161 59.625 91.7765 58.7051C91.6275 55.4463 91.5297 52.1828 91.4109 48.9217C91.3612 47.6183 91.3154 46.3126 91.2541 45.0093C91.2277 44.4247 91.2316 43.8184 90.3754 43.8045C89.5882 43.7928 89.1434 44.0971 89.0836 44.9138C89.058 45.2755 88.9742 45.631 88.9028 45.9866C88.5511 47.7192 87.9448 49.2477 85.8326 49.3494C83.8236 49.4465 81.723 47.9242 81.3177 45.9625C81.0872 44.8377 81.067 43.6577 81.0631 42.5011C81.0468 38.185 81.8518 37.5345 86.0911 38.3201C86.5103 38.3969 87.0211 38.5545 87.3564 38.3954C88.6388 37.7914 89.1139 38.2502 89.1178 39.5357C89.1178 40.2988 89.1473 41.0207 90.2364 40.9687C91.3907 40.9175 91.1625 40.0644 91.1741 39.3867C91.2619 34.5241 90.9653 29.6731 90.7014 24.8206C90.6657 24.1763 90.7511 23.4807 89.7574 23.4411C88.8096 23.4015 88.857 24.0373 88.6621 24.6847C88.2033 26.2233 85.9777 27.3481 84.0184 27.1176C82.2019 26.9049 81.1105 25.9074 80.8939 24.0575C80.8287 23.4831 80.793 22.8985 80.8108 22.3202C80.8621 20.5736 80.7612 18.7012 82.9572 18.0615C84.6262 17.5764 87.3867 18.8425 88.2608 20.52C88.5829 21.1379 88.9563 21.1139 89.4873 21.0362C90.4072 20.8996 90.3971 20.2359 90.3334 19.5675C89.9701 15.669 89.5983 11.7737 89.2172 7.87676C89.155 7.22857 89.0277 6.58503 88.9346 5.9415C88.3485 1.89942 89.263 0.744314 93.4059 0.356951C95.9459 0.118634 98.541 0.0844777 100.997 0.601479C107.398 1.9491 113.7 0.93295 120.035 0.271561C121.188 0.150461 122.345 0.0565318 123.503 0.00529738C126.127 -0.106487 127.863 1.55941 127.846 4.19254C127.814 8.97597 127.728 13.7633 127.721 18.5467C127.718 19.1941 127.146 20.3189 128.581 20.2794C129.451 20.2576 130.292 20.2359 130.363 18.9379C130.443 17.4933 130.955 16.3382 132.835 16.9546C133.127 17.05 133.525 16.7915 133.879 16.7279C135.774 16.3879 137.589 16.4717 138.62 18.4015C139.676 20.3764 139.379 22.3916 138.116 24.1545C136.874 25.8872 134.983 26.1201 133.026 25.7684C132.214 25.6233 131.514 25.0667 131.234 24.3036C130.691 22.8248 129.618 23.1904 128.553 23.3495C127.271 23.5405 127.494 24.5357 127.488 25.3686C127.462 29.2857 127.45 33.2028 127.472 37.1192C127.474 37.6959 127.146 38.5522 128.134 38.6834C129.006 38.8029 129.404 38.31 129.546 37.4336C129.708 36.4322 130.323 36.0603 131.424 36.1519C132.484 36.2412 133.573 35.933 134.652 35.8833C137.929 35.7242 139.346 37.5391 138.436 40.6823C137.332 44.4922 136.003 45.5674 132.71 45.3011C131.186 45.1761 130.099 44.5559 129.791 42.9063C129.68 42.3024 129.921 41.2971 128.668 41.5253C127.665 41.7101 127.42 42.3342 127.438 43.244C127.481 45.4183 127.45 47.5966 127.509 49.7702C127.579 52.453 127.718 55.1319 127.81 57.8147C127.842 58.7036 127.75 59.5458 129.081 59.6095C130.184 59.6631 130.691 59.3751 130.713 58.2184C130.735 57.0299 131.451 56.5766 132.609 56.7295C132.963 56.7776 133.332 56.7256 133.694 56.7202C135.465 56.7 137.332 56.6783 138.312 58.4629C139.373 60.3928 138.553 62.3397 137.657 64.0591C136.792 65.718 134.993 65.6031 133.394 65.5457C131.895 65.4921 130.986 64.6607 130.749 63.1571C130.656 62.5609 130.596 61.9166 129.735 62.1448C129.016 62.3358 127.951 62.2527 128.08 63.4288C128.517 67.4336 126.834 70.6862 124.807 73.9675C123.249 76.4912 122.589 79.4838 121.916 82.3715C121.512 84.0964 122.339 85.8555 122.36 87.6619C122.554 103.248 122.877 118.834 123.15 134.42C123.491 154.201 123.819 173.985 124.159 193.766C124.296 201.807 124.344 209.849 124.64 217.884C124.789 221.92 124.709 225.954 124.839 229.986C124.882 231.314 124.489 232.751 125.874 233.762C126.298 234.07 126.284 234.851 125.88 235.145C124.55 236.119 124.938 237.47 124.956 238.722C125.097 248.355 125.306 257.985 125.391 267.616C125.411 269.702 125.969 270.267 128.189 270.083C133.314 269.662 138.443 269.712 143.571 270.666C151.118 272.073 158.731 273.058 166.194 275.008C175.945 277.556 182.571 283.678 187.159 292.313C192.135 301.683 193.092 311.552 190.764 321.87C189.043 329.501 187.144 337.14 186.172 344.88C184.799 355.812 186.617 366.148 192.237 376.066C200.125 389.979 207.489 404.251 213.207 419.227C218.3 432.562 221.236 446.454 221.716 460.782C222.205 475.449 219.985 489.672 212.98 502.671C203.423 520.411 188.55 531.678 169.167 537.25C151.061 542.455 132.583 544.037 117.495 543.856Z" fill="var(--fill-0, white)" fill-opacity="0.15"/>
</g>
<g transform="translate(286.2011413574219 83.7507553100586)">
<path id="Vector" fill-rule="evenodd" clip-rule="evenodd" d="M3.02454 1.90838C2.87161 2.76927 2.47416 3.52459 1.56203 3.48423C0.635933 3.44464 -0.0596121 2.85233 0.00404265 1.79737C0.06925 0.757937 0.583922 -0.0330907 1.71651 0.00106552C2.91741 0.0367744 2.75595 1.15772 3.02454 1.90838Z" fill="var(--fill-0, white)" fill-opacity="0.2"/>
</g>
</svg>