<svg preserveAspectRatio="none" width="100%" height="100%" overflow="visible" style="display: block;" viewBox="0 0 174.3 42" fill="none" xmlns="http://www.w3.org/2000/svg">
<g id="Apple_Music_Logo_0 1" clip-path="url(#clip0_48_5746)">
<path id="Vector" d="M72.9795 41.4666V13.1103H72.7947L61.3854 41.4666H57.03L45.5934 13.1103H45.4107V41.4666H40.0599V2.9379H46.8534L59.1027 33.642H59.3127L71.5347 2.94H78.3555V41.4687L72.9795 41.4666ZM107.942 41.4666H102.512V36.7143H102.382C100.859 40.0785 98.0535 41.9727 93.8304 41.9727C87.8244 41.9727 84.1494 37.9953 84.1494 31.5609V13.377H89.8152V30.4395C89.8152 34.7109 91.8102 37.0062 95.7162 37.0062C99.8112 37.0062 102.277 34.1229 102.277 29.7444V13.377H107.94L107.942 41.4666ZM123.47 12.8688C129.896 12.8688 134.066 16.5018 134.251 21.6804H128.926C128.611 18.9588 126.643 17.2494 123.47 17.2494C120.4 17.2494 118.354 18.7698 118.354 21.0147C118.354 22.7766 119.614 23.9757 122.603 24.6708L127.088 25.7124C132.729 27.048 134.879 29.2908 134.879 33.348C134.879 38.4762 130.184 42 123.68 42C116.781 42 112.634 38.556 112.111 33.2157H117.724C118.249 36.1515 120.217 37.5942 123.68 37.5942C127.088 37.5942 129.188 36.1515 129.188 33.8562C129.188 32.0397 128.165 30.9729 125.148 30.2778L120.662 29.211C115.416 27.9825 112.819 25.4184 112.819 21.336C112.819 16.3149 117.122 12.8688 123.47 12.8688ZM138.81 5.9556C138.81 4.1118 140.28 2.6439 142.088 2.6439C143.899 2.6439 145.343 4.1139 145.343 5.9556C145.343 7.77 143.899 9.2652 142.088 9.2652C141.216 9.25799 140.382 8.90592 139.768 8.28585C139.154 7.66578 138.809 6.82807 138.81 5.9556ZM139.256 13.377H144.921V41.4666H139.256V13.377ZM168.842 23.0433C168.265 20.0529 166.062 17.6757 162.364 17.6757C157.983 17.6757 155.098 21.3864 155.098 27.4197C155.098 33.5895 158.009 37.1679 162.416 37.1679C165.902 37.1679 168.187 35.2191 168.842 31.9599H174.3C173.698 37.9407 169.002 42 162.366 42C154.47 42 149.329 36.498 149.329 27.4218C149.329 18.5031 154.47 12.8688 162.314 12.8688C169.422 12.8688 173.75 17.5161 174.248 23.0433H168.842ZM22.7307 6.6969C21.2649 8.4483 18.9402 9.8385 16.6134 9.6327C16.3089 7.2639 17.4744 4.7397 18.789 3.1962C20.2527 1.3902 22.7811 0.105 24.8538 0C25.1079 2.4738 24.1482 4.893 22.7328 6.699L22.7307 6.6969ZM24.8286 10.0968C26.139 10.1997 29.9211 10.6092 32.3424 14.2548C32.1408 14.4102 27.8547 16.926 27.9051 22.2138C27.9555 28.5348 33.3504 30.639 33.4008 30.6915C33.3504 30.8469 32.5461 33.6714 30.5784 36.5967C28.8627 39.1671 27.0987 41.6829 24.2742 41.7354C21.5505 41.7858 20.6412 40.0911 17.5164 40.0911C14.3895 40.0911 13.3794 41.6829 10.809 41.7858C8.08534 41.8866 6.02104 39.0621 4.30534 36.4938C0.773144 31.3068 -1.89806 21.8568 1.73284 15.4875C3.49684 12.3039 6.72454 10.3005 10.2042 10.248C12.8775 10.1997 15.3492 12.0477 16.962 12.0477C18.5769 12.0477 21.4497 9.8931 24.8286 10.0968Z" fill="var(--fill-0, white)"/>
</g>
<defs>
<clipPath id="clip0_48_5746">
<rect width="174.3" height="42" fill="white"/>
</clipPath>
</defs>
</svg>
