<svg preserveAspectRatio="none" width="100%" height="100%" overflow="visible" style="display: block;" viewBox="0 0 240.973 32.86" fill="none" xmlns="http://www.w3.org/2000/svg">
<g id="Audiomack" clip-path="url(#clip0_48_5740)">
<path id="Vector" fill-rule="evenodd" clip-rule="evenodd" d="M88.3886 28.4587H94.4786V9.23559H88.3886V20.2364C88.391 21.5143 88.0636 22.5244 87.4064 23.2668C86.7492 24.0116 85.8742 24.3841 84.7813 24.3841C82.5651 24.3828 81.4569 23.0258 81.4569 20.3131V9.23559H75.3669V20.8407C75.3669 26.2297 77.6561 28.9279 82.2492 28.9279C84.7721 28.9279 86.7876 27.796 88.2955 25.5323H88.3886V28.4587ZM67.4129 28.4587H73.1908V16.9686C73.1896 11.5017 70.3685 8.76764 64.7275 8.76643C63.5117 8.76399 62.1675 8.92647 60.6949 9.25385C59.218 9.58062 58.057 9.95121 57.2063 10.382V14.8474C59.3312 13.4843 61.5724 12.8027 63.9298 12.8027C66.2787 12.8027 67.4531 13.8536 67.4531 15.9555L62.075 16.6492C57.5282 17.2248 55.2547 19.3772 55.2547 23.1062C55.2547 24.8697 55.8024 26.2863 56.9032 27.3415C58.0022 28.3991 59.515 28.9273 61.4415 28.926C64.0411 28.926 66.0048 27.849 67.3326 25.6948H67.4111L67.4129 28.4587ZM67.4494 19.3528V20.6471C67.4482 21.8277 67.088 22.8013 66.3687 23.568C65.6421 24.3384 64.7129 24.7218 63.5647 24.7218C62.7407 24.7193 62.0854 24.5039 61.5985 24.0755C61.3643 23.8682 61.1785 23.6119 61.0542 23.3249C60.9299 23.0378 60.8702 22.727 60.8793 22.4143C60.8793 20.9222 61.8712 20.0514 63.8549 19.8019L67.4494 19.3528ZM110.527 28.4587H116.637V0.000109024H110.527V11.4317H110.454C109.448 9.65243 107.669 8.76399 105.12 8.76643C102.428 8.76643 100.25 9.72302 98.588 11.6362C96.9267 13.553 96.0955 16.0991 96.0942 19.2743C96.093 22.3206 96.8476 24.6895 98.3579 26.3812C99.8622 28.079 101.852 28.9273 104.327 28.926C107.02 28.926 109.062 27.8879 110.456 25.8116H110.529L110.527 28.4587ZM110.646 17.6605V19.1082C110.646 20.6976 110.256 21.9755 109.477 22.9419C108.698 23.9033 107.69 24.3841 106.451 24.3841C105.152 24.3841 104.135 23.9264 103.398 23.0112C102.664 22.1033 102.297 20.8023 102.296 19.1082C102.297 17.3082 102.677 15.8904 103.437 14.8547C104.197 13.8238 105.255 13.309 106.609 13.3102C107.805 13.309 108.776 13.721 109.525 14.5461C110.271 15.3737 110.645 16.4119 110.646 17.6605ZM119.857 5.30152C120.515 5.89544 121.359 6.19178 122.39 6.19057C123.43 6.19057 124.283 5.90213 124.927 5.33256C125.582 4.75568 125.908 4.01633 125.906 3.11451C125.907 2.22607 125.581 1.50011 124.929 0.936619C124.28 0.371914 123.434 0.0895612 122.39 0.0895612C121.36 0.0895612 120.516 0.371914 119.857 0.936619C119.197 1.50072 118.874 2.22364 118.874 3.11451C118.874 3.97982 119.197 4.70457 119.857 5.30152ZM125.946 23.7926C125.544 23.3763 125.343 22.7538 125.343 21.9396V9.23377H119.277V23.254C119.277 24.1303 119.407 24.9202 119.666 25.6236C119.923 26.3234 120.285 26.9197 120.752 27.4126C121.229 27.9116 121.797 28.2914 122.455 28.5518C123.121 28.8135 123.86 28.9437 124.673 28.9425C125.555 28.9425 126.415 28.8877 127.231 28.7636C128.049 28.6479 128.825 28.4964 129.56 28.309V24.1376L129.509 24.1467C129.189 24.21 128.87 24.269 128.553 24.3238C128.222 24.3869 127.886 24.4193 127.549 24.4206C126.882 24.4193 126.347 24.21 125.946 23.7926ZM131.435 26.2333C133.322 28.0273 135.914 28.9242 139.212 28.9242C142.563 28.9242 145.201 27.9993 147.128 26.1494C149.054 24.2958 150.017 21.7735 150.016 18.5824C150.014 15.6263 149.08 13.2506 147.213 11.4555C145.347 9.66156 142.769 8.7646 139.482 8.7646C136.146 8.7646 133.499 9.66156 131.541 11.4555C129.582 13.2518 128.603 15.7407 128.604 18.922C128.604 21.9962 129.549 24.4388 131.435 26.2333ZM136.005 14.7506C136.802 13.7891 137.923 13.3084 139.367 13.3084C142.316 13.3072 143.791 15.1035 143.792 18.6974C143.791 22.4849 142.329 24.3792 139.407 24.3804C136.339 24.3804 134.805 22.5354 134.803 18.8453C134.803 17.0806 135.204 15.7157 136.005 14.7506ZM176.963 28.4569H183.051V16.4995C183.051 11.3417 180.9 8.76338 176.599 8.7646C173.676 8.7646 171.46 9.95851 169.953 12.3463C168.921 9.9573 167.007 8.76338 164.213 8.7646C162.86 8.7646 161.612 9.08712 160.471 9.73214C159.33 10.3711 158.446 11.2108 157.813 12.2368H157.734V9.23377H151.631V28.4569H157.734V17.7774C157.735 16.3985 158.05 15.3086 158.678 14.5078C159.3 13.7082 160.134 13.309 161.179 13.3102C163.247 13.3102 164.29 14.6684 164.29 17.3794V28.4587H170.393V17.6989C170.393 16.449 170.709 15.4041 171.342 14.5644C171.975 13.7259 172.793 13.3078 173.795 13.3102C175.908 13.3102 176.964 14.705 176.963 17.4944V28.4569ZM202.004 28.4569H196.224V25.6948H196.146C194.819 27.8477 192.856 28.9242 190.256 28.9242C188.331 28.9242 186.818 28.3966 185.718 27.3415C184.617 26.2814 184.067 24.8697 184.068 23.1062C184.069 19.3759 186.342 17.2224 190.888 16.6455L196.264 15.9536C196.264 13.8518 195.09 12.8009 192.743 12.8009C190.387 12.8009 188.146 13.4824 186.021 14.8455V10.382C186.869 9.95243 188.032 9.57636 189.51 9.25385C190.832 8.94636 192.183 8.78294 193.541 8.76643C199.183 8.76764 202.004 11.5017 202.004 16.9686V28.4569ZM196.264 20.6435V19.351L192.67 19.7983C190.686 20.0502 189.694 20.9222 189.694 22.4143C189.694 23.0897 189.934 23.6429 190.415 24.0737C190.902 24.5033 191.557 24.7187 192.38 24.72C193.526 24.72 194.461 24.3354 195.184 23.5662C195.902 22.7995 196.262 21.8258 196.264 20.6453M219.485 27.765C218.106 28.5402 216.117 28.9273 213.516 28.926C210.476 28.9285 208.015 28.0339 206.135 26.2425C204.254 24.4546 203.312 22.1447 203.311 19.3127C203.311 16.0449 204.32 13.4764 206.332 11.5906C208.351 9.7078 211.049 8.76643 214.427 8.76643C216.756 8.76764 218.442 9.06643 219.485 9.66277V14.6995C218.252 13.7851 216.754 13.2974 215.219 13.3102C213.463 13.3102 212.079 13.8031 211.049 14.8017C210.025 15.7948 209.512 17.1682 209.512 18.922C209.512 20.6198 210.007 21.9597 210.984 22.9273C211.959 23.9021 213.311 24.3822 215.02 24.3822C216.541 24.3834 218.03 23.9204 219.485 22.993V27.765ZM233.643 28.4587H240.974L233.374 18.263L240.465 9.23377H233.223L227.326 18.1169H227.246V0.000109024H221.145V28.4587H227.246V18.922H227.326L233.643 28.4587Z" fill="var(--fill-0, white)"/>
<path id="Vector_2" fill-rule="evenodd" clip-rule="evenodd" d="M0.628549 16.0306C0.628549 16.0306 1.65451 15.8626 2.07804 16.3044C2.50157 16.7462 2.22408 17.6608 1.66181 17.6772C1.09954 17.6918 0.581085 17.7959 0.212323 17.4034C0.116287 17.296 0.0495068 17.1657 0.0184053 17.025C-0.0126962 16.8843 -0.0070728 16.7379 0.0347347 16.6001C0.0765421 16.4622 0.153127 16.3373 0.257124 16.2376C0.36112 16.1379 0.489029 16.0666 0.628549 16.0306ZM11.7699 22.274C11.6713 22.2849 11.5673 22.2393 11.4596 22.1645C10.7239 21.1367 10.4573 17.6279 10.1196 17.418C9.76911 17.2008 8.50034 19.3622 5.97743 19.1304C4.92226 19.0336 3.84883 18.349 3.21719 17.8762C3.2756 17.0785 3.28473 15.2164 4.85654 15.8206C5.8113 16.1894 7.447 17.1989 8.88189 15.3843C10.4701 13.3799 11.3464 13.9604 11.8703 14.3985C12.3961 14.833 12.0456 17.1004 12.8287 16.4669C13.6119 15.8334 16.7738 11.8975 16.7738 11.8975C16.7738 11.8975 19.22 9.42755 19.5961 12.0253C19.9721 14.6213 21.5677 17.5002 21.9912 17.418C22.4147 17.3359 27.3383 7.31904 28.0429 6.67279C28.7476 6.02654 31.1226 6.11234 31.0094 7.76995C30.8963 9.42755 30.6553 19.731 30.6553 19.731C30.6553 19.731 30.376 22.6336 30.8305 21.0819C31.0186 20.4393 31.2212 19.8588 31.4731 19.1833C32.689 15.2876 34.7591 8.63709 35.7906 5.20869C36.0279 4.38902 36.2305 3.68618 36.3894 3.14582V3.14034C36.4514 2.89024 36.5135 2.69125 36.5756 2.51417C36.6614 2.22208 36.7198 2.03223 36.7362 1.98111C36.7837 1.85332 36.9115 1.75474 37.094 1.68355C37.2766 1.56854 37.4719 1.56306 37.6946 1.55576C38.266 1.50464 39.0017 1.57949 39.6644 1.76935C39.8579 1.77665 40.066 1.83872 40.2668 1.98111L40.2942 1.99937L40.3088 2.00849C40.349 2.0377 40.4165 2.0943 40.495 2.1874C40.495 2.19105 40.4975 2.19409 40.5023 2.19653C40.5368 2.24185 40.569 2.28876 40.5991 2.33709C40.9697 2.87928 41.196 3.87969 40.9679 5.65413C40.4019 10.0829 39.962 19.1924 39.962 19.1924C39.962 19.1924 39.8743 19.6288 40.7853 17.7101C40.8182 17.6426 40.8583 17.586 40.8948 17.5239C40.961 17.4801 41.0196 17.4259 41.0683 17.3632C41.6324 16.6896 43.1476 16.2953 44.1973 16.3044C44.6409 16.3574 45.0115 16.4687 45.2324 16.6093C45.6468 17.2409 45.4021 19.5703 45.4021 19.5703C44.5277 19.6507 42.8628 20.1217 42.2713 20.2093C41.6816 20.2969 40.7853 24.1342 39.5384 23.7417C38.2916 23.3492 35.5113 21.6058 35.5113 21.3649C35.5113 21.1549 35.7303 18.6064 35.7869 17.9492L35.7979 17.8196L35.8015 17.7922C35.8399 17.2756 35.8052 17.0492 35.5642 17.5659C35.3597 18.0113 34.4652 20.8574 33.4666 23.9572C33.3608 24.2292 31.4768 29.9413 31.2267 30.6387C30.9328 31.4456 30.6845 32.0644 30.5129 32.3839C30.2518 32.7381 29.8995 32.9608 29.4084 32.8111C28.1835 32.4405 26.6318 30.7482 26.6172 30.3283C26.5879 27.9551 26.7322 15.2091 26.1589 16.2716C25.5693 17.3596 20.9853 24.9192 20.9853 24.9192C20.9086 24.932 20.8521 24.9302 20.7845 24.9356C20.4596 24.8991 19.9575 24.7951 19.817 24.4829C19.8084 24.4659 19.8005 24.4476 19.7932 24.4281L19.7677 24.3533C19.7056 24.1452 19.68 23.9188 19.6253 23.7326C19.4208 23.0425 19.0922 22.0494 18.749 21.0399C18.2196 19.3184 17.6774 17.5568 17.588 17.3632C17.4127 16.9817 17.1571 17.1442 16.9289 17.3632C15.9066 18.2304 13.7342 22.064 11.7699 22.274Z" fill="url(#paint0_linear_48_5740)"/>
</g>
<defs>
<linearGradient id="paint0_linear_48_5740" x1="-20.5735" y1="16.4979" x2="10.5304" y2="57.8285" gradientUnits="userSpaceOnUse">
<stop stop-color="#FFBE00"/>
<stop offset="1" stop-color="#E85E0A"/>
</linearGradient>
<clipPath id="clip0_48_5740">
<rect width="240.973" height="32.86" fill="white"/>
</clipPath>
</defs>
</svg>
