<svg preserveAspectRatio="none" width="100%" height="100%" overflow="visible" style="display: block;" viewBox="0 0 202.196 42" fill="none" xmlns="http://www.w3.org/2000/svg">
<g id="boomplay-seeklogo-2 1" clip-path="url(#clip0_48_5731)">
<path id="Vector" d="M-0.000236577 21.0025C-0.0260776 16.8174 1.19135 12.7188 3.49771 9.22634C5.80407 5.73391 9.09548 3.00495 12.9547 1.38542C16.8139 -0.234115 21.0671 -0.671278 25.175 0.129348C29.283 0.929974 33.0607 2.93233 36.0293 5.88257C38.9978 8.83281 41.0236 12.5981 41.8496 16.701C42.6757 20.8039 42.2649 25.0597 40.6693 28.9289C39.0737 32.798 36.3651 36.1063 32.8871 38.4342C29.409 40.7622 25.318 42.005 21.1328 42.005C15.546 42.0197 10.182 39.8158 6.21939 35.8777C2.25676 31.9395 0.0196968 26.5892 -0.000236577 21.0025Z" fill="var(--fill-0, white)"/>
<path id="Vector_2" d="M25.1275 19.9687C25.8502 19.9747 26.5668 19.8368 27.2357 19.5631C27.9045 19.2893 28.5121 18.8851 29.0232 18.3741C29.5342 17.863 29.9384 17.2554 30.2121 16.5866C30.4859 15.9178 30.6238 15.2011 30.6178 14.4784C30.6046 13.0231 30.0171 11.6318 28.9833 10.6074C27.9494 9.58291 26.5529 9.0082 25.0974 9.00826C22.5882 9.00826 20.6259 9.00826 17.2786 9.00826C17.0663 9.00712 16.86 9.07795 16.6932 9.2092C16.5264 9.34045 16.409 9.52437 16.3602 9.73093L15.8884 11.7935C15.8849 11.8117 15.885 11.8305 15.889 11.8486C15.8929 11.8667 15.9005 11.8838 15.9113 11.8988C15.9222 11.9139 15.936 11.9266 15.9519 11.9361C15.9678 11.9456 15.9855 11.9517 16.0039 11.9541L21.5242 12.6768L22.9796 12.8725C24.3998 13.0582 25.3835 14.0569 25.3534 15.4219C25.3435 15.9754 25.1482 16.5096 24.7988 16.9391C24.4495 17.3685 23.9662 17.6684 23.4263 17.7907C23.0604 17.8812 22.6789 17.8881 22.3101 17.811C21.9412 17.7339 21.5944 17.5747 21.2955 17.3452C20.9966 17.1157 20.7532 16.8218 20.5834 16.4854C20.4137 16.149 20.3218 15.7786 20.3148 15.4019C20.3089 14.9274 20.4377 14.4611 20.6861 14.0569L15.6676 13.3995C15.6339 13.3949 15.5997 13.4032 15.5718 13.4227C15.5439 13.4423 15.5243 13.4716 15.5171 13.5049L13.6301 21.7904C13.6265 21.8086 13.6267 21.8273 13.6306 21.8455C13.6346 21.8636 13.6422 21.8807 13.653 21.8957C13.6638 21.9108 13.6776 21.9235 13.6935 21.933C13.7094 21.9425 13.7271 21.9486 13.7455 21.951L21.4439 22.9547L22.272 23.0651C23.9281 23.2859 25.2379 24.4954 25.1878 26.1616C25.1511 26.9462 24.8123 27.6862 24.2423 28.2266C23.6722 28.767 22.9152 29.066 22.1298 29.0608C21.3443 29.0556 20.5913 28.7467 20.0285 28.1988C19.4656 27.6509 19.1366 26.9065 19.1103 26.1214C19.0984 25.4338 19.3255 24.7633 19.7527 24.2244L13.3942 23.3964C13.3605 23.3918 13.3263 23.4001 13.2984 23.4196C13.2705 23.4392 13.2509 23.4685 13.2437 23.5018L11.7381 30.0258C11.6601 30.379 11.6622 30.7452 11.7444 31.0975C11.8266 31.4497 11.9868 31.779 12.2131 32.0612C12.4394 32.3434 12.7261 32.5712 13.0521 32.7279C13.3781 32.8846 13.7351 32.9662 14.0968 32.9667H25.0472C25.9414 33.0371 26.8405 32.9224 27.6884 32.6297C28.5362 32.337 29.3146 31.8726 29.9749 31.2656C30.6353 30.6585 31.1633 29.9218 31.5261 29.1015C31.8889 28.2812 32.0786 27.3949 32.0835 26.498C32.0883 25.601 31.9081 24.7127 31.5542 23.8885C31.2003 23.0644 30.6803 22.322 30.0265 21.7079C29.3728 21.0937 28.5995 20.621 27.7549 20.3191C26.9102 20.0173 26.0124 19.8929 25.1175 19.9537L25.1275 19.9687Z" fill="var(--fill-0, #121212)"/>
<path id="Vector_3" d="M160.598 25.8153C160.598 25.8605 160.598 25.9056 160.598 25.9508C160.598 25.9959 160.573 26.1114 160.557 26.1867C160.535 26.3058 160.523 26.4267 160.522 26.548C160.496 26.7277 160.511 26.911 160.567 27.0839C160.622 27.2568 160.716 27.4147 160.842 27.5455C160.968 27.6763 161.123 27.7766 161.293 27.8385C161.464 27.9005 161.647 27.9225 161.827 27.903C162.116 27.8973 162.403 27.8517 162.68 27.7675C162.902 27.7044 163.119 27.6239 163.328 27.5266L162.374 31.9278C161.818 32.1978 161.236 32.4113 160.638 32.5652C159.774 32.7753 158.887 32.8731 157.998 32.8563C156.924 32.9251 155.859 32.6181 154.987 31.9881C154.64 31.6734 154.37 31.2839 154.196 30.8491C154.022 30.4144 153.949 29.9458 153.983 29.4788C153.983 29.248 153.983 29.0121 154.013 28.7712C154.036 28.5241 154.078 28.2791 154.139 28.0385L158.154 9.66569C158.195 9.48069 158.298 9.31522 158.445 9.19661C158.593 9.078 158.777 9.01333 158.967 9.01327H164.231L160.598 25.8153ZM60.2171 18.4933C60.8166 18.4664 61.3897 18.2392 61.8447 17.8479C62.2997 17.4566 62.6101 16.924 62.7264 16.3353C62.7912 16.0472 62.7924 15.7485 62.73 15.4599C62.6676 15.1713 62.5431 14.8997 62.3651 14.6641C62.202 14.4404 61.9894 14.2575 61.7439 14.1295C61.4984 14.0015 61.2266 13.932 60.9498 13.9264H57.0605L56.1321 18.4933H60.2171ZM58.6263 28.1639C59.2935 28.14 59.933 27.8909 60.4406 27.4571C60.9481 27.0233 61.2939 26.4305 61.4216 25.7751C61.4933 25.4586 61.4949 25.1302 61.4264 24.8129C61.358 24.4956 61.221 24.1972 61.0251 23.9384C60.8485 23.7038 60.6216 23.5117 60.3611 23.3762C60.1006 23.2408 59.813 23.1653 59.5196 23.1555H55.1234L54.0845 28.174L58.6263 28.1639ZM61.1054 9.09357C65.8329 9.1287 68.5027 11.5577 68.5027 14.5889C68.472 15.9567 67.9957 17.2772 67.1461 18.3497C66.2964 19.4222 65.1199 20.188 63.7954 20.5308C67.1879 20.9825 68.6784 24.1642 68.1113 26.9194C67.1577 31.5615 63.153 32.7308 58.0391 32.8964H57.7029H57.1609H47.997C47.8972 32.8957 47.7989 32.8727 47.7091 32.8291C47.6192 32.7856 47.5402 32.7227 47.4778 32.6448C47.4153 32.567 47.371 32.4762 47.3479 32.3791C47.3249 32.282 47.3238 32.181 47.3446 32.0834L52.0771 9.74097C52.1171 9.5532 52.22 9.38471 52.3687 9.26334C52.5175 9.14198 52.7032 9.07501 52.8951 9.07351H61.1054V9.09357ZM143.996 27.7524C145.708 27.627 147.334 25.8504 147.615 23.7878C147.709 23.289 147.691 22.7752 147.561 22.2845C147.43 21.7937 147.192 21.3385 146.862 20.9523C146.623 20.6977 146.33 20.5007 146.004 20.3764C145.678 20.2521 145.328 20.2036 144.98 20.2347C143.269 20.3602 141.643 22.1367 141.362 24.1993C141.268 24.699 141.286 25.2133 141.417 25.7047C141.547 26.1962 141.785 26.6523 142.114 27.0398C142.332 27.2702 142.595 27.4529 142.887 27.5764C143.179 27.6999 143.494 27.7616 143.811 27.7575H144.001L143.996 27.7524ZM148.101 15.4119C149.205 15.3826 150.293 15.685 151.223 16.2801C152.097 16.8682 152.792 17.6861 153.23 18.6438C153.722 19.7343 153.966 20.9205 153.943 22.1166C153.948 23.5047 153.694 24.8815 153.195 26.1766C152.724 27.4181 152.045 28.5704 151.188 29.5842C150.378 30.5424 149.387 31.3319 148.272 31.9078C147.223 32.4541 146.058 32.7415 144.875 32.7459C143.88 32.7822 142.895 32.5369 142.034 32.0382C141.298 31.5772 140.771 30.8456 140.569 30.0007L140.443 29.4989L138.29 39.2197H132.268L137.287 16.3203C137.329 16.1295 137.435 15.9589 137.587 15.8366C137.74 15.7143 137.929 15.6477 138.125 15.6478H142.641L142.009 18.5836L142.32 18.2072C143.026 17.3413 143.9 16.6277 144.89 16.1095C145.891 15.6284 146.991 15.3895 148.101 15.4119ZM177.239 23.7426C176.958 25.7902 175.342 27.5617 173.631 27.6872H173.44C173.125 27.6905 172.812 27.6285 172.522 27.5049C172.232 27.3814 171.97 27.1991 171.754 26.9696C171.425 26.5851 171.186 26.1316 171.056 25.6425C170.925 25.1535 170.907 24.6414 171.001 24.1441C171.282 22.0966 172.903 20.33 174.609 20.1996C174.956 20.1686 175.305 20.2167 175.63 20.3401C175.955 20.4635 176.248 20.6592 176.486 20.9122C176.817 21.2968 177.056 21.7512 177.186 22.2413C177.317 22.7314 177.335 23.2446 177.239 23.7426ZM183.05 27.1101C182.95 27.1478 182.841 27.1603 182.734 27.1463C182.628 27.1323 182.526 27.0923 182.438 27.0298C182.197 26.8341 182.142 26.4225 182.283 25.8053L184.375 16.4206H179.507L179.106 18.3879L178.945 18.1821C178.282 17.3435 177.462 16.6414 176.531 16.1145C175.628 15.6699 174.637 15.43 173.631 15.4119C172.41 15.4066 171.206 15.6922 170.118 16.245C168.997 16.8168 167.994 17.5949 167.162 18.5384C166.284 19.5269 165.595 20.6683 165.129 21.9059C164.639 23.2066 164.391 24.5859 164.397 25.9759C164.376 27.1734 164.625 28.3602 165.124 29.4487C165.575 30.4112 166.291 31.2257 167.187 31.7974C168.152 32.3819 169.266 32.6763 170.394 32.6455C171.544 32.6276 172.676 32.3587 173.711 31.8577C174.746 31.3567 175.659 30.6355 176.386 29.7448L176.597 29.4688C176.597 29.4688 176.301 30.894 177.199 31.7572C177.761 32.2892 178.815 32.3394 179.477 32.3193C180.385 32.2963 181.27 32.0275 182.037 31.5414L183.05 27.1101ZM78.1634 27.8076C79.8897 27.6822 81.5258 25.8956 81.8118 23.828C81.906 23.3264 81.8869 22.8101 81.7558 22.3169C81.6246 21.8237 81.3849 21.366 81.054 20.9774C80.8127 20.7222 80.5165 20.525 80.188 20.4007C79.8594 20.2764 79.5069 20.2282 79.157 20.2598C77.4307 20.3852 75.7946 22.1718 75.5086 24.2395C75.4137 24.741 75.4325 25.2575 75.5636 25.7508C75.6948 26.2442 75.9349 26.7018 76.2664 27.09C76.4856 27.3215 76.7504 27.5053 77.044 27.6296C77.3376 27.754 77.6538 27.8163 77.9727 27.8127L78.1634 27.8076ZM80.3013 15.4069C81.8216 15.3402 83.3336 15.6651 84.6925 16.3504C85.7321 16.9205 86.5713 17.7965 87.0963 18.8596C87.6136 19.9719 87.8743 21.1862 87.8591 22.4127C87.8621 23.7257 87.6081 25.0265 87.1114 26.2419C86.6052 27.4922 85.853 28.6282 84.8996 29.5825C83.9462 30.5368 82.8108 31.29 81.5609 31.7974C80.1159 32.3755 78.5703 32.6604 77.0141 32.6355C75.4987 32.6992 73.9927 32.3689 72.643 31.6769C71.5901 31.0945 70.7434 30.2004 70.2191 29.1175C69.7051 28.0094 69.4445 26.8008 69.4562 25.5794C69.4534 24.2665 69.7074 22.9657 70.204 21.7503C70.7026 20.53 71.4319 19.4173 72.3519 18.4732C73.3194 17.4952 74.4775 16.7265 75.7545 16.2149C77.2094 15.6504 78.7611 15.3776 80.3213 15.4119L80.3013 15.4069ZM100.225 23.9384C99.9387 26.006 98.3027 27.7926 96.5763 27.918H96.3856C96.0668 27.9217 95.7506 27.8594 95.457 27.735C95.1633 27.6107 94.8986 27.4269 94.6793 27.1954C94.3482 26.807 94.1082 26.3494 93.9771 25.8561C93.8459 25.3628 93.827 24.8464 93.9215 24.3449C94.2076 22.2772 95.8436 20.4906 97.57 20.3652C97.9199 20.3336 98.2723 20.3818 98.6009 20.5061C98.9295 20.6304 99.2256 20.8276 99.467 21.0828C99.8022 21.4692 100.047 21.9259 100.182 22.4192C100.318 22.9125 100.341 23.4299 100.25 23.9333L100.225 23.9384ZM105.504 18.8847C104.981 17.8202 104.141 16.9437 103.1 16.3755C101.744 15.6891 100.233 15.3642 98.7142 15.432C97.1579 15.4082 95.6119 15.6878 94.1624 16.255C92.885 16.7681 91.7268 17.5385 90.7599 18.5184C89.8403 19.4628 89.111 20.5754 88.6119 21.7954C88.1167 23.0113 87.8628 24.3118 87.8642 25.6246C87.8541 26.8372 88.1129 28.0369 88.622 29.1375C89.1455 30.2211 89.9924 31.1154 91.0459 31.697C92.3947 32.3918 93.9011 32.7239 95.417 32.6606C96.9733 32.686 98.519 32.4011 99.9638 31.8225C101.215 31.3156 102.351 30.5628 103.305 29.6084C104.26 28.6541 105.013 27.5178 105.519 26.2669C106.018 25.0519 106.273 23.7511 106.272 22.4378C106.296 21.211 106.042 19.9946 105.529 18.8797L105.504 18.8847ZM191.722 25.6948C194.182 21.0025 196.269 16.0743 196.54 15.4169H202.171C201.303 17.1031 194.458 30.3922 191.321 34.9289C187.959 39.7919 181.987 39.29 181.053 39.1796L182.017 34.6328C183.31 34.7603 184.609 34.4701 185.725 33.8048C186.369 33.3599 186.938 32.8162 187.412 32.1938L187.442 32.1537L185.213 15.427H190.779L191.527 26.0712L191.722 25.6948ZM134.511 19.8483C134.546 19.4669 134.562 19.1808 134.562 18.9951C134.566 18.3943 134.463 17.7976 134.255 17.2336C134.046 16.6848 133.657 16.2231 133.151 15.9238C132.514 15.5273 131.53 15.3617 130.22 15.4219C129.883 15.4379 129.548 15.4798 129.217 15.5474C128.166 15.7619 127.162 16.1612 126.251 16.7268C125.577 17.1435 124.972 17.6634 124.459 18.2674L124.274 18.4832V18.2022C124.232 17.715 124.09 17.2417 123.857 16.8121C123.594 16.3663 123.197 16.015 122.723 15.8084C122.007 15.517 121.236 15.3852 120.464 15.4219C119.24 15.4207 118.028 15.6612 116.896 16.1295C115.796 16.5739 114.82 17.2782 114.051 18.1821L113.735 18.5535L114.367 15.6779H109.629C109.441 15.6786 109.258 15.7429 109.111 15.8603C108.963 15.9778 108.859 16.1416 108.816 16.3253L105.304 32.2842H111.361L113.429 22.8694C113.77 21.5746 114.884 20.5659 115.998 20.5559C116.231 20.5522 116.461 20.6003 116.673 20.6967C116.885 20.793 117.072 20.9352 117.223 21.1129C117.412 21.3597 117.547 21.6438 117.619 21.9465C117.691 22.2493 117.698 22.5638 117.639 22.8694L117.659 23.0099L115.652 32.2541H121.649L123.681 22.8443C124.018 21.5496 125.132 20.5408 126.251 20.5308C126.484 20.5268 126.714 20.5747 126.926 20.6711C127.138 20.7675 127.325 20.9098 127.475 21.0878C127.666 21.3338 127.802 21.6179 127.874 21.9209C127.946 22.2239 127.952 22.5388 127.892 22.8443L127.857 23.02L125.849 32.2641H131.872L134.296 21.3237C134.403 20.8353 134.482 20.341 134.531 19.8432L134.511 19.8483Z" fill="var(--fill-0, white)"/>
</g>
<defs>
<clipPath id="clip0_48_5731">
<rect width="202.196" height="42" fill="white"/>
</clipPath>
</defs>
</svg>
