<svg preserveAspectRatio="none" width="100%" height="100%" overflow="visible" style="display: block;" viewBox="0 0 149.333 42" fill="none" xmlns="http://www.w3.org/2000/svg">
<g id="Deezer" clip-path="url(#clip0_48_5736)">
<path id="Vector" fill-rule="evenodd" clip-rule="evenodd" d="M53.1576 10.2652H61.4314C66.5544 10.2652 70.1769 13.6734 70.1769 18.5176C70.1769 23.3619 66.5544 26.7701 61.4314 26.7701H53.1576V10.2652ZM59.5881 22.3116H61.0885C62.6961 22.3116 63.5535 21.24 63.5535 18.5176C63.5535 15.7955 62.6961 14.7237 61.0885 14.7237H59.5881V22.3116ZM84.7524 26.7701H71.1626V10.2652H84.7524V14.7237H77.5716V16.6314H84.3237V20.2753H77.5716V22.3116H84.7524V26.7701ZM99.8853 26.7701H86.2957V10.2652H99.8853V14.7237H92.7047V16.6314H99.4568V20.2753H92.7047V22.3116H99.8853V26.7701ZM149.207 26.7701C148.281 24.2463 146.986 21.5535 145.244 18.5351C147.281 17.9375 148.5 16.6528 148.5 14.6808C148.5 11.6799 145.735 10.2652 141.362 10.2652H132.359V26.7701H138.79V19.9429C140.219 22.3491 141.271 24.6198 141.962 26.7701H149.207ZM138.79 17.6388V14.7237H141.019C141.962 14.7237 142.498 15.2382 142.498 16.1813C142.498 17.1244 141.962 17.6388 141.019 17.6388H138.79ZM130.816 26.7701H117.226V10.2652H130.816V14.7237H123.636V16.6314H130.388V20.2753H123.636V22.3116H130.816V26.7701ZM101.429 14.7237H108.064C105.311 16.9761 103.046 19.5273 101.3 22.3116V26.7701H115.897V22.3116H108.601C110.273 19.8793 112.61 17.4571 115.897 14.7237V10.2652H101.429V14.7237Z" fill="var(--fill-0, white)"/>
<path id="Vector_2" fill-rule="evenodd" clip-rule="evenodd" d="M35.0706 6.45411C35.4573 4.2126 36.0248 2.80307 36.6535 2.80039H36.6547C37.8269 2.80443 38.7771 7.69265 38.7771 13.7279C38.7771 19.7632 37.8255 24.6554 36.6521 24.6554C36.171 24.6554 35.727 23.8247 35.3697 22.4327C34.8049 27.5284 33.6328 31.0312 32.2758 31.0312C31.226 31.0312 30.2838 28.927 29.6512 25.6086C29.2193 31.9197 28.1323 36.3974 26.8617 36.3974C26.0643 36.3974 25.3374 34.6231 24.7992 31.7339C24.1521 37.6978 22.6569 41.8766 20.9134 41.8766C19.1699 41.8766 17.672 37.6991 17.0276 31.7339C16.4933 34.6231 15.7664 36.3974 14.965 36.3974C13.6945 36.3974 12.6101 31.9197 12.1756 25.6086C11.543 28.927 10.6034 31.0312 9.55089 31.0312C8.19537 31.0312 7.02191 27.5296 6.45711 22.4327C6.10228 23.8288 5.65576 24.6554 5.17468 24.6554C4.00123 24.6554 3.04969 19.7632 3.04969 13.7279C3.04969 7.69265 4.00123 2.80039 5.17468 2.80039C5.80459 2.80039 6.36807 4.21394 6.75877 6.45411C7.38471 2.58902 8.40135 0.0769227 9.55089 0.0769227C10.9157 0.0769227 12.0985 3.62967 12.658 8.78851C13.2055 5.03381 14.0361 2.64017 14.9663 2.64017C16.2701 2.64017 17.3783 7.34801 17.789 13.915C18.5611 10.5481 19.6788 8.43578 20.9161 8.43578C22.1532 8.43578 23.271 10.5494 24.0417 13.915C24.4537 7.34801 25.5606 2.64017 26.8644 2.64017C27.7933 2.64017 28.6226 5.03381 29.1728 8.78851C29.731 3.62967 30.9138 0.0769227 32.2785 0.0769227C33.4241 0.0769227 34.4446 2.59038 35.0706 6.45411ZM0.0132151 12.6531C0.0132151 9.95522 0.552767 7.76758 1.21857 7.76758C1.88437 7.76758 2.42392 9.95522 2.42392 12.6531C2.42392 15.3509 1.88437 17.5387 1.21857 17.5387C0.552767 17.5387 0.0132151 15.3509 0.0132151 12.6531ZM39.402 12.6531C39.402 9.95522 39.9415 7.76758 40.6073 7.76758C41.273 7.76758 41.8127 9.95522 41.8127 12.6531C41.8127 15.3509 41.273 17.5387 40.6073 17.5387C39.9415 17.5387 39.402 15.3509 39.402 12.6531Z" fill="var(--fill-0, #A238FF)"/>
</g>
<defs>
<clipPath id="clip0_48_5736">
<rect width="149.333" height="42" fill="white"/>
</clipPath>
</defs>
</svg>
