<svg preserveAspectRatio="none" width="100%" height="100%" overflow="visible" style="display: block;" viewBox="0 0 188.133 41.9999" fill="none" xmlns="http://www.w3.org/2000/svg">
<g id="g12">
<path id="path14" d="M58.7457 35.4416C58.0557 38.023 56.0229 40.0562 53.4413 40.7461C48.7621 41.9999 29.9997 41.9999 29.9997 41.9999C29.9997 41.9999 11.2374 41.9999 6.55825 40.7461C3.97693 40.0562 1.94371 38.023 1.25381 35.4416C0 30.7625 0 21.0001 0 21.0001C0 21.0001 0 11.2374 1.25381 6.55844C1.94371 3.97732 3.97693 1.9439 6.55825 1.2542C11.2374 0 29.9997 0 29.9997 0C29.9997 0 48.7621 0 53.4413 1.2542C56.0229 1.9439 58.0557 3.97732 58.7457 6.55844C59.9996 11.2374 59.9996 21.0001 59.9996 21.0001C59.9996 21.0001 59.9996 30.7625 58.7457 35.4416Z" fill="var(--fill-0, #ED1D24)"/>
<path id="path16" d="M23.9996 11.9999L39.5875 20.9998L23.9996 29.9999V11.9999Z" fill="var(--fill-0, white)"/>
<path id="path18" d="M93.7399 7.91031C94.0683 8.76784 94.2333 10.1694 94.2333 12.1145V20.3103C94.2333 22.1981 94.0683 23.5779 93.7399 24.4506C93.411 25.3229 92.8316 25.7594 92.0024 25.7594C91.2013 25.7594 90.6358 25.3229 90.3074 24.4506C89.9785 23.5779 89.814 22.1981 89.814 20.3103V12.1145C89.814 10.1694 89.971 8.76784 90.2861 7.91031C90.6003 7.05178 91.1722 6.62314 92.0024 6.62314C92.8316 6.62314 93.411 7.05178 93.7399 7.91031ZM87.0897 3.791C85.9019 4.59105 85.0579 5.83579 84.5581 7.52409C84.0573 9.2112 83.8074 11.4568 83.8074 14.2602V18.079C83.8074 20.9107 84.0928 23.185 84.6652 24.9011C85.2372 26.6174 86.1306 27.8685 87.347 28.6554C88.5625 29.4418 90.1572 29.8354 92.1313 29.8354C94.0762 29.8354 95.6349 29.4346 96.8079 28.634C97.9804 27.8332 98.8388 26.5813 99.3825 24.8797C99.9253 23.1775 100.197 20.9107 100.197 18.079V14.2602C100.197 11.4568 99.9327 9.20384 99.4038 7.50226C98.8743 5.80028 98.0159 4.55575 96.8291 3.76958C95.6418 2.98303 94.0332 2.58947 92.0024 2.58947C89.9138 2.58947 88.276 2.99036 87.0897 3.791Z" fill="var(--fill-0, white)"/>
<path id="path20" d="M178.972 25.2677C178.672 24.8957 178.471 24.2878 178.372 23.4443C178.271 22.6003 178.222 21.3205 178.222 19.6042V17.7162H182.555V19.6042C182.555 21.2915 182.498 22.5716 182.383 23.4443C182.269 24.3166 182.062 24.9312 181.762 25.2891C181.461 25.6468 180.996 25.8256 180.367 25.8256C179.737 25.8256 179.272 25.6393 178.972 25.2677ZM178.222 14.1977V12.8675C178.222 11.1794 178.271 9.9138 178.372 9.07035C178.471 8.22635 178.678 7.61126 178.994 7.22485C179.309 6.83922 179.794 6.64572 180.453 6.64572C181.339 6.64572 181.947 6.98911 182.276 7.67591C182.605 8.36231 182.783 9.50635 182.812 11.1086L187.918 10.808C187.947 10.5785 187.961 10.264 187.961 9.86427C187.961 7.43243 187.297 5.61587 185.966 4.41453C184.637 3.21358 182.755 2.61262 180.324 2.61262C177.407 2.61262 175.361 3.52766 174.188 5.3589C173.015 7.18879 172.429 10.0209 172.429 13.8543V18.4457C172.429 22.3931 173.037 25.2744 174.253 27.0916C175.468 28.9078 177.549 29.816 180.496 29.816C182.526 29.816 184.085 29.4441 185.172 28.7006C186.259 27.9563 187.024 26.7978 187.468 25.225C187.912 23.6516 188.133 21.4773 188.133 18.703V14.1977H178.222Z" fill="var(--fill-0, white)"/>
<path id="path22" d="M72.6711 14.6902L65.9345 39.0189H71.8127L74.1725 27.9916C74.7736 25.2735 75.2166 22.9567 75.5026 21.0407H75.6744C75.8745 22.4136 76.318 24.716 77.0045 27.9486L79.4502 39.0189H85.3284L78.5064 14.6902V3.01875H72.6711V14.6902Z" fill="var(--fill-0, white)"/>
<path id="path24" d="M119.316 29.3209V3.01878H114.682L114.166 6.23673H114.038C112.779 3.80552 110.891 2.5901 108.374 2.5901C106.629 2.5901 105.342 3.16154 104.512 4.30616C103.683 5.44963 103.268 7.23803 103.268 9.66943V29.3209H109.19V10.0128C109.19 8.83931 109.318 8.00296 109.576 7.50271C109.833 7.00171 110.262 6.75185 110.863 6.75185C111.378 6.75185 111.871 6.90871 112.343 7.22416C112.815 7.53861 113.165 7.93831 113.395 8.42489V29.3209H119.316Z" fill="var(--fill-0, white)"/>
<path id="path26" d="M149.688 29.3209V3.01878H145.054L144.538 6.23673H144.41C143.151 3.80552 141.263 2.5901 138.746 2.5901C137.001 2.5901 135.714 3.16154 134.884 4.30616C134.055 5.44963 133.64 7.23803 133.64 9.66943V29.3209H139.562V10.0128C139.562 8.83931 139.69 8.00296 139.947 7.50271C140.205 7.00171 140.634 6.75185 141.235 6.75185C141.75 6.75185 142.243 6.90871 142.715 7.22416C143.187 7.53861 143.537 7.93831 143.766 8.42489V29.3209H149.688Z" fill="var(--fill-0, white)"/>
<path id="path28" d="M135.405 34.2553H129.527V3.01875H123.735V34.2553H117.857V39.0181H135.405V34.2553Z" fill="var(--fill-0, white)"/>
<path id="path30" d="M163.857 14.3877C163.857 12.471 163.778 10.9691 163.621 9.88259C163.464 8.79485 163.199 8.02276 162.827 7.56557C162.455 7.10774 161.954 6.87912 161.326 6.87912C160.839 6.87912 160.388 6.99296 159.974 7.22252C159.558 7.45114 159.223 7.79419 158.965 8.25237V23.1839C159.165 23.8985 159.509 24.4852 159.995 24.943C160.481 25.4 161.01 25.6294 161.582 25.6294C162.183 25.6294 162.648 25.3932 162.977 24.9216C163.305 24.4497 163.535 23.6558 163.664 22.5399C163.792 21.4246 163.857 19.837 163.857 17.7776V14.3877ZM169.284 25.1164C168.926 26.775 168.347 27.9763 167.546 28.7206C166.745 29.4638 165.644 29.8359 164.243 29.8359C163.156 29.8359 162.14 29.5282 161.197 28.9136C160.253 28.2983 159.523 27.4901 159.008 26.4891H158.965L158.965 40.3483H153.259V3.0193H158.15L158.751 5.50746H158.879C159.337 4.62096 160.023 3.92006 160.939 3.40515C161.854 2.89043 162.87 2.63288 163.986 2.63288C165.987 2.63288 167.461 3.55563 168.405 5.40038C169.349 7.24568 169.821 10.127 169.821 14.0462V18.2082C169.821 21.1541 169.642 23.4569 169.284 25.1164Z" fill="var(--fill-0, white)"/>
</g>
</svg>
